{"glyphs":{"0":{"ha":693,"x_min":98,"x_max":809,"o":"m 648 607 q 650 654 654 632 q 633 693 646 677 q 602 720 621 710 q 558 729 583 729 l 444 729 q 397 720 420 729 q 354 693 374 710 q 320 654 334 677 q 301 607 307 632 l 250 364 q 249 317 245 339 q 266 278 254 295 q 298 252 279 262 q 342 243 317 243 l 456 243 q 504 252 481 243 q 546 278 527 262 q 578 316 565 294 q 597 364 592 338 l 648 607 m 686 243 q 582 71 665 142 q 497 18 541 35 q 403 0 453 0 l 289 0 q 140 71 193 0 q 106 150 115 106 q 110 243 98 193 l 212 729 q 317 900 233 829 q 496 972 401 972 l 610 972 q 695 954 659 972 q 758 900 732 936 q 790 729 809 829 l 686 243 z "},"1":{"ha":693,"x_min":231,"x_max":610,"o":"m 231 0 l 283 243 l 342 243 l 444 729 l 386 729 l 437 972 l 610 972 l 456 243 l 514 243 l 461 0 l 231 0 z "},"2":{"ha":693,"x_min":57,"x_max":809,"o":"m 57 0 l 121 304 q 159 397 132 355 q 228 475 185 439 q 406 547 311 547 l 492 547 q 527 554 509 547 q 558 574 544 562 q 583 602 573 586 q 597 637 593 618 q 597 673 601 656 q 585 702 594 690 q 562 722 576 715 q 530 729 548 729 l 212 729 l 264 972 l 610 972 q 695 954 659 972 q 758 900 732 936 q 790 729 809 829 l 777 668 q 672 497 755 568 q 586 444 630 462 q 493 425 542 425 l 350 425 q 315 418 332 425 q 283 398 298 410 q 258 370 269 386 q 243 335 247 353 l 225 243 l 686 243 l 635 0 l 57 0 z "},"3":{"ha":693,"x_min":57,"x_max":809,"o":"m 686 243 q 582 72 665 142 q 403 0 499 0 l 57 0 l 110 243 l 428 243 q 463 250 446 243 q 494 270 479 258 q 518 299 508 283 q 532 335 528 316 q 533 370 536 353 q 520 398 530 386 q 497 418 511 410 q 465 425 483 425 l 262 425 l 289 547 l 492 547 q 527 554 509 547 q 558 574 544 562 q 583 602 573 586 q 597 637 593 618 q 597 673 601 656 q 585 702 594 690 q 562 722 576 715 q 530 729 548 729 l 212 729 l 264 972 l 610 972 q 695 954 659 972 q 758 900 732 936 q 790 729 809 829 l 786 717 q 760 642 778 678 q 713 575 742 606 q 650 520 684 543 q 578 486 616 498 q 638 450 613 473 q 676 394 663 426 q 692 323 690 362 q 686 243 695 285 z "},"4":{"ha":693,"x_min":93,"x_max":840,"o":"m 519 0 l 557 170 l 93 170 l 212 729 l 328 729 l 260 412 l 607 412 l 726 972 l 840 972 l 635 0 l 519 0 z "},"5":{"ha":693,"x_min":57,"x_max":783,"o":"m 686 243 q 582 72 665 142 q 403 0 499 0 l 57 0 l 110 243 l 428 243 q 463 250 446 243 q 494 270 479 258 q 518 299 508 283 q 532 335 528 316 q 533 370 536 353 q 520 398 530 386 q 497 418 511 410 q 465 425 483 425 l 147 425 l 264 972 l 783 972 l 733 729 l 328 729 l 289 547 l 519 547 q 605 529 568 547 q 667 475 641 511 q 699 304 722 405 l 686 243 z "},"6":{"ha":693,"x_min":87,"x_max":783,"o":"m 590 335 q 591 370 594 353 q 578 398 587 386 q 554 418 569 410 q 522 425 540 425 l 350 425 q 315 418 332 425 q 283 398 298 410 q 258 370 269 386 q 243 335 247 353 q 243 299 239 316 q 256 270 247 283 q 280 250 266 258 q 313 243 295 243 l 485 243 q 520 250 503 243 q 551 270 537 258 q 576 299 566 283 q 590 335 587 316 m 686 243 q 582 71 665 142 q 497 18 541 35 q 403 0 453 0 l 289 0 q 142 72 193 0 q 110 243 87 144 l 212 729 q 317 901 233 831 q 403 955 359 937 q 496 972 447 972 l 783 972 l 733 729 l 444 729 q 396 720 419 729 q 353 694 372 710 q 320 655 334 677 q 301 607 307 633 l 268 450 q 283 488 272 470 q 311 518 295 505 q 345 539 326 532 q 383 547 363 547 l 519 547 q 605 529 568 547 q 667 475 641 511 q 699 304 722 405 l 686 243 z "},"7":{"ha":693,"x_min":57,"x_max":840,"o":"m 218 0 l 57 0 l 628 729 l 212 729 l 264 972 l 840 972 l 790 729 l 218 0 z "},"8":{"ha":693,"x_min":98,"x_max":809,"o":"m 590 335 q 591 370 594 353 q 578 398 587 386 q 554 418 569 410 q 522 425 540 425 l 350 425 q 315 418 332 425 q 283 398 298 410 q 258 370 269 386 q 243 335 247 353 q 243 299 239 316 q 256 270 247 283 q 280 250 266 258 q 313 243 295 243 l 485 243 q 520 250 503 243 q 551 270 537 258 q 576 299 566 283 q 590 335 587 316 m 656 637 q 656 673 659 656 q 643 702 652 690 q 620 722 634 715 q 587 729 606 729 l 415 729 q 380 722 397 729 q 348 702 363 715 q 322 673 333 690 q 309 637 312 656 q 308 602 304 618 q 320 574 311 586 q 344 554 330 562 q 376 547 359 547 l 549 547 q 585 554 567 547 q 617 574 602 562 q 642 602 631 586 q 656 637 652 618 m 686 243 q 582 71 665 142 q 497 18 541 35 q 403 0 453 0 l 289 0 q 140 71 193 0 q 106 149 115 106 q 110 243 98 192 l 117 279 q 170 399 132 347 q 271 486 209 450 q 207 573 224 522 q 204 693 189 625 l 212 729 q 317 901 233 831 q 403 955 359 937 q 496 972 447 972 l 610 972 q 695 955 659 972 q 760 901 732 937 q 790 729 809 831 l 782 693 q 628 486 752 556 q 694 279 724 415 l 686 243 z "},"9":{"ha":693,"x_min":115,"x_max":809,"o":"m 656 637 q 656 673 659 656 q 643 702 652 690 q 620 722 634 715 q 587 729 606 729 l 415 729 q 380 722 397 729 q 348 702 363 715 q 322 673 333 690 q 309 637 312 656 q 308 602 304 618 q 320 574 311 586 q 344 554 330 562 q 376 547 359 547 l 549 547 q 585 554 567 547 q 617 574 602 562 q 642 602 631 586 q 656 637 652 618 m 686 243 q 582 71 665 142 q 497 18 541 35 q 403 0 453 0 l 115 0 l 168 243 l 456 243 q 504 252 481 243 q 546 278 527 262 q 578 316 565 294 q 597 364 592 338 l 631 522 q 615 485 627 503 q 589 454 604 467 q 554 433 573 441 q 517 425 536 425 l 379 425 q 294 444 331 425 q 232 497 258 462 q 199 668 178 569 l 212 729 q 317 901 233 831 q 403 955 359 937 q 496 972 447 972 l 610 972 q 695 954 659 972 q 758 900 732 936 q 790 729 809 829 l 686 243 z "}," ":{"ha":519,"x_min":0,"x_max":0,"o":""},"!":{"ha":277,"x_min":57,"x_max":425,"o":"m 57 0 l 93 170 l 256 170 l 218 0 l 57 0 m 235 292 l 165 292 l 264 972 l 425 972 l 235 292 z "},"\"":{"ha":530,"x_min":250,"x_max":693,"o":"m 319 693 l 250 693 l 277 1034 l 439 1034 l 319 693 m 574 693 l 504 693 l 530 1034 l 693 1034 l 574 693 z "},"#":{"ha":715,"x_min":160,"x_max":833,"o":"m 452 729 l 407 583 l 546 583 l 589 729 l 452 729 m 608 486 l 568 340 l 475 340 l 517 486 l 378 486 l 336 340 l 244 340 l 286 486 l 160 486 l 180 583 l 315 583 l 358 729 l 212 729 l 233 827 l 387 827 l 429 972 l 521 972 l 481 827 l 618 827 l 660 972 l 753 972 l 711 827 l 833 827 l 812 729 l 682 729 l 637 583 l 782 583 l 761 486 l 608 486 z "},"$":{"ha":693,"x_min":82,"x_max":840,"o":"m 713 364 q 675 271 701 313 q 607 193 650 229 q 522 139 566 157 q 429 121 477 121 l 403 0 l 289 0 l 315 121 l 82 121 l 135 364 l 481 364 q 505 369 493 364 q 526 383 516 374 q 543 402 536 391 q 551 425 549 413 q 544 468 557 450 q 507 486 531 486 l 393 486 q 245 558 296 486 q 210 636 217 594 q 212 729 202 679 q 318 900 233 829 q 404 954 360 936 q 496 972 448 972 l 521 1093 l 636 1093 l 610 972 l 840 972 l 790 729 l 444 729 q 420 724 432 729 q 399 711 409 720 q 383 691 390 703 q 374 668 376 680 q 372 645 370 656 q 380 626 374 634 q 396 612 387 617 q 418 607 406 607 l 532 607 q 618 589 581 607 q 681 536 654 572 q 714 458 707 500 q 713 364 722 415 z "},"%":{"ha":1236,"x_min":159,"x_max":1282,"o":"m 551 699 q 552 734 555 718 q 539 763 549 751 q 516 783 530 776 q 485 790 503 790 l 399 790 q 364 783 381 790 q 332 763 347 776 q 308 734 318 751 q 293 699 297 718 l 273 607 q 273 572 270 589 q 286 544 277 556 q 309 524 294 531 q 340 517 323 517 l 427 517 q 462 524 445 517 q 494 543 479 530 q 518 571 508 555 q 532 607 528 587 l 551 699 m 1169 364 q 1170 399 1173 382 q 1157 428 1166 416 q 1134 448 1148 441 q 1103 456 1120 456 l 1015 456 q 979 448 997 456 q 947 428 962 441 q 922 399 932 416 q 908 364 912 382 l 889 273 q 888 238 885 255 q 901 209 892 222 q 924 189 910 197 q 957 182 939 182 l 1044 182 q 1080 189 1063 182 q 1112 208 1097 196 q 1136 237 1126 220 q 1150 273 1146 254 l 1169 364 m 600 517 q 572 446 591 478 q 522 386 553 414 q 387 335 461 335 l 301 335 q 191 387 233 335 q 165 446 172 414 q 167 517 159 479 l 225 790 q 254 860 233 828 q 304 918 274 892 q 437 972 365 972 l 524 972 q 636 918 594 972 q 659 790 675 865 l 600 517 m 559 0 l 766 972 l 882 972 l 675 0 l 559 0 m 1217 182 q 1137 53 1200 104 q 1074 13 1107 26 q 1006 0 1041 0 l 918 0 q 807 53 846 0 q 782 112 788 80 q 783 182 775 144 l 842 456 q 869 525 849 493 q 920 585 889 557 q 1054 637 981 637 l 1141 637 q 1250 585 1211 637 q 1277 525 1271 557 q 1275 456 1282 493 l 1217 182 z "},"&":{"ha":693,"x_min":87,"x_max":840,"o":"m 539 425 l 407 425 q 372 418 389 425 q 340 398 355 410 q 316 370 326 386 q 301 335 305 353 q 301 299 298 316 q 314 270 304 283 q 338 250 323 258 q 370 243 352 243 l 501 243 l 539 425 m 289 0 q 142 72 193 0 q 110 243 87 144 q 137 323 118 285 q 183 394 156 362 q 245 450 210 426 q 321 486 280 473 q 261 523 286 499 q 223 578 237 547 q 207 649 210 610 q 212 729 203 687 q 318 900 233 829 q 404 954 360 936 q 496 972 448 972 l 840 972 l 790 729 l 472 729 q 437 722 454 729 q 406 702 420 715 q 381 673 391 690 q 367 637 370 656 q 366 602 363 618 q 378 574 369 586 q 401 554 387 562 q 433 547 416 547 l 751 547 l 724 425 l 656 425 l 618 243 l 686 243 l 635 0 l 289 0 z "},"'":{"ha":277,"x_min":250,"x_max":439,"o":"m 319 693 l 250 693 l 277 1034 l 439 1034 l 319 693 z "},"(":{"ha":403,"x_min":63,"x_max":521,"o":"m 264 -122 q 178 -104 215 -122 q 115 -50 141 -85 q 82 121 63 22 l 237 850 q 274 944 248 901 q 345 1022 300 987 q 521 1093 426 1093 l 471 850 q 423 840 446 850 q 380 814 399 831 q 347 776 361 798 q 328 729 333 754 l 225 243 q 223 196 219 218 q 240 157 228 174 q 272 131 252 140 q 315 121 291 121 l 264 -122 z "},")":{"ha":403,"x_min":90,"x_max":537,"o":"m 372 121 q 335 28 361 71 q 267 -50 309 -14 q 181 -104 226 -85 q 90 -122 137 -122 l 140 121 q 188 131 164 121 q 230 157 211 140 q 263 196 250 174 q 283 243 277 218 l 386 729 q 387 776 391 754 q 370 814 382 798 q 339 840 358 831 q 296 850 319 850 l 347 1093 q 496 1022 444 1093 q 529 944 521 987 q 528 850 537 901 l 372 121 z "},"*":{"ha":561,"x_min":196,"x_max":675,"o":"m 578 566 l 464 646 l 431 486 l 338 486 l 372 646 l 224 566 l 196 650 l 345 729 l 228 808 l 293 893 l 407 812 l 441 972 l 533 972 l 500 812 l 646 893 l 675 808 l 529 729 l 642 650 l 578 566 z "},"+":{"ha":578,"x_min":138,"x_max":621,"o":"m 414 376 l 374 182 l 281 182 l 322 376 l 138 376 l 158 473 l 343 473 l 383 668 l 476 668 l 435 473 l 621 473 l 600 376 l 414 376 z "},",":{"ha":277,"x_min":66,"x_max":256,"o":"m 136 -171 l 66 -171 l 93 170 l 256 170 l 136 -171 z "},"-":{"ha":578,"x_min":138,"x_max":621,"o":"m 138 376 l 158 473 l 621 473 l 600 376 l 138 376 z "},"­":{"ha":578,"x_min":138,"x_max":621,"o":"m 138 376 l 158 473 l 621 473 l 600 376 l 138 376 z "},".":{"ha":277,"x_min":57,"x_max":256,"o":"m 57 0 l 93 170 l 256 170 l 218 0 l 57 0 z "},"/":{"ha":561,"x_min":16,"x_max":753,"o":"m 115 -106 l 16 -64 l 654 1078 l 753 1036 l 115 -106 z "},":":{"ha":277,"x_min":57,"x_max":358,"o":"m 57 0 l 93 170 l 256 170 l 218 0 l 57 0 m 160 486 l 197 656 l 358 656 l 322 486 l 160 486 z "},";":{"ha":277,"x_min":66,"x_max":358,"o":"m 136 -171 l 66 -171 l 93 170 l 256 170 l 136 -171 m 160 486 l 197 656 l 358 656 l 322 486 l 160 486 z "},";":{"ha":277,"x_min":66,"x_max":358,"o":"m 136 -171 l 66 -171 l 93 170 l 256 170 l 136 -171 m 160 486 l 197 656 l 358 656 l 322 486 l 160 486 z "},"<":{"ha":553,"x_min":138,"x_max":636,"o":"m 469 111 l 138 376 l 158 473 l 602 739 l 636 657 l 245 425 l 538 193 l 469 111 z "},"=":{"ha":578,"x_min":114,"x_max":644,"o":"m 114 267 l 135 364 l 597 364 l 578 267 l 114 267 m 160 486 l 180 583 l 644 583 l 624 486 l 160 486 z "},">":{"ha":553,"x_min":98,"x_max":597,"o":"m 132 111 l 98 193 l 488 425 l 197 657 l 265 739 l 597 473 l 576 376 l 132 111 z "},"?":{"ha":624,"x_min":115,"x_max":741,"o":"m 115 0 l 151 170 l 314 170 l 277 0 l 115 0 m 722 729 q 685 636 711 679 q 616 558 659 594 q 437 486 532 486 l 346 486 l 293 292 l 224 292 l 268 607 l 463 607 q 486 612 475 607 q 508 626 498 617 q 525 645 517 634 q 534 668 532 656 q 527 711 540 693 q 490 729 513 729 l 212 729 l 264 972 l 541 972 q 626 954 589 972 q 689 900 663 936 q 722 729 741 829 z "},"@":{"ha":1039,"x_min":35,"x_max":1147,"o":"m 733 374 q 724 433 741 410 q 672 456 707 456 l 586 456 q 550 448 568 456 q 516 428 532 441 q 489 399 500 416 q 471 364 477 382 q 451 295 457 320 q 443 267 444 271 q 441 233 439 248 q 453 206 444 218 q 474 188 461 195 q 504 182 488 182 l 590 182 q 626 189 608 182 q 659 209 644 197 q 687 238 675 222 q 704 273 699 255 q 725 343 718 319 q 733 374 732 368 m 1034 243 q 996 149 1022 192 q 928 71 970 106 q 843 18 887 35 q 750 0 799 0 l 624 0 l 642 61 q 596 14 630 30 q 501 -1 562 -1 l 475 -1 q 460 0 467 0 q 450 0 454 0 q 391 12 416 0 q 346 47 366 24 q 323 102 329 73 q 325 167 317 131 q 326 172 325 168 q 330 182 327 176 l 412 456 q 445 525 423 493 q 500 585 467 557 q 639 637 568 637 l 725 637 q 829 590 795 637 q 850 472 865 543 q 849 466 850 471 q 846 456 848 462 l 734 85 l 803 85 q 851 94 828 85 q 893 120 874 104 q 925 159 911 136 q 945 207 939 181 l 1064 765 q 1064 812 1069 790 q 1047 851 1060 835 q 1016 878 1035 868 q 974 888 997 888 l 441 888 q 395 878 418 888 q 353 851 372 868 q 320 812 334 835 q 301 765 307 790 l 131 -36 q 130 -83 125 -61 q 146 -122 134 -106 q 177 -149 159 -139 q 220 -158 196 -158 l 831 -158 l 812 -243 l 237 -243 q 89 -171 140 -243 q 57 0 35 -100 l 212 729 q 317 900 233 829 q 496 972 401 972 l 957 972 q 1104 900 1051 972 q 1138 822 1130 864 q 1136 729 1147 780 l 1034 243 z "},"A":{"ha":693,"x_min":57,"x_max":809,"o":"m 648 607 q 651 655 654 633 q 635 694 647 677 q 603 720 623 710 q 558 729 584 729 l 444 729 q 397 720 420 729 q 354 693 374 710 q 320 654 334 677 q 301 607 307 632 l 250 364 l 597 364 l 648 607 m 519 0 l 572 243 l 225 243 l 172 0 l 57 0 l 212 729 q 318 900 233 829 q 404 954 360 936 q 496 972 448 972 l 610 972 q 695 955 659 972 q 760 901 732 937 q 790 729 809 831 l 635 0 l 519 0 z "},"B":{"ha":693,"x_min":57,"x_max":809,"o":"m 532 335 q 533 370 536 353 q 520 398 530 386 q 497 418 511 410 q 465 425 483 425 l 262 425 l 225 243 l 428 243 q 463 250 446 243 q 494 270 479 258 q 518 299 508 283 q 532 335 528 316 m 597 637 q 597 673 601 656 q 585 702 594 690 q 562 722 576 715 q 530 729 548 729 l 328 729 l 289 547 l 492 547 q 527 554 509 547 q 558 574 544 562 q 583 602 573 586 q 597 637 593 618 m 686 243 q 582 72 665 142 q 403 0 499 0 l 57 0 l 264 972 l 610 972 q 695 954 659 972 q 758 900 732 936 q 790 729 809 829 l 786 717 q 760 642 778 678 q 713 575 742 606 q 650 520 684 543 q 578 486 616 498 q 638 450 613 473 q 676 394 663 426 q 692 323 690 362 q 686 243 695 285 z "},"C":{"ha":693,"x_min":87,"x_max":840,"o":"m 289 0 q 142 72 193 0 q 110 243 87 144 l 212 729 q 318 900 233 829 q 404 954 360 936 q 496 972 448 972 l 840 972 l 790 729 l 444 729 q 397 720 420 729 q 354 693 374 710 q 320 654 334 677 q 301 607 307 632 l 250 364 q 249 317 245 339 q 266 278 254 295 q 298 252 279 262 q 342 243 317 243 l 686 243 l 635 0 l 289 0 z "},"D":{"ha":693,"x_min":57,"x_max":809,"o":"m 648 607 q 650 654 654 632 q 633 693 646 677 q 602 720 621 710 q 558 729 583 729 l 328 729 l 225 243 l 456 243 q 504 252 481 243 q 546 278 527 262 q 578 316 565 294 q 597 364 592 338 l 648 607 m 686 243 q 582 71 665 142 q 497 18 541 35 q 403 0 453 0 l 57 0 l 264 972 l 610 972 q 695 954 659 972 q 758 900 732 936 q 790 729 809 829 l 686 243 z "},"E":{"ha":578,"x_min":98,"x_max":726,"o":"m 289 0 q 140 71 193 0 q 106 149 115 106 q 110 243 98 192 l 264 972 l 726 972 l 675 729 l 328 729 l 289 547 l 519 547 l 493 425 l 262 425 l 250 364 q 249 316 245 338 q 266 278 254 294 q 297 252 278 262 q 342 243 317 243 l 572 243 l 519 0 l 289 0 z "},"F":{"ha":549,"x_min":57,"x_max":726,"o":"m 444 729 q 396 720 419 729 q 353 694 372 710 q 320 655 334 677 q 301 607 307 633 l 289 547 l 519 547 l 493 425 l 262 425 l 172 0 l 57 0 l 212 729 q 317 901 233 831 q 403 955 359 937 q 496 972 447 972 l 726 972 l 675 729 l 444 729 z "},"G":{"ha":693,"x_min":87,"x_max":840,"o":"m 444 729 q 397 720 420 729 q 354 693 374 710 q 320 654 334 677 q 301 607 307 632 l 250 364 q 249 317 245 339 q 266 278 254 295 q 298 252 279 262 q 342 243 317 243 l 559 243 l 597 425 l 436 425 l 463 547 l 741 547 l 624 0 l 289 0 q 142 72 193 0 q 110 243 87 144 l 212 729 q 318 900 233 829 q 404 954 360 936 q 496 972 448 972 l 840 972 l 790 729 l 444 729 z "},"H":{"ha":693,"x_min":57,"x_max":840,"o":"m 519 0 l 597 364 l 250 364 l 172 0 l 57 0 l 264 972 l 379 972 l 301 607 l 648 607 l 726 972 l 840 972 l 635 0 l 519 0 z "},"I":{"ha":346,"x_min":57,"x_max":496,"o":"m 57 0 l 110 243 l 168 243 l 271 729 l 212 729 l 264 972 l 496 972 l 444 729 l 386 729 l 283 243 l 342 243 l 289 0 l 57 0 z "},"J":{"ha":461,"x_min":57,"x_max":610,"o":"m 456 243 q 351 71 435 142 q 265 18 309 35 q 172 0 221 0 l 57 0 l 110 243 l 225 243 q 273 252 250 243 q 315 278 296 262 q 348 316 334 294 q 367 364 361 338 l 444 729 l 212 729 l 264 972 l 610 972 l 456 243 z "},"K":{"ha":693,"x_min":57,"x_max":840,"o":"m 519 0 l 572 243 q 574 291 578 269 q 557 330 570 313 q 526 355 545 346 q 481 364 506 364 l 250 364 l 172 0 l 57 0 l 264 972 l 379 972 l 301 607 l 532 607 q 580 616 557 607 q 623 642 604 626 q 656 681 642 659 q 675 729 669 703 l 726 972 l 840 972 l 783 704 q 760 636 776 669 q 722 575 745 604 q 671 524 700 547 q 610 486 643 501 q 656 448 637 471 q 685 397 675 425 q 697 335 696 368 q 692 267 699 302 l 635 0 l 519 0 z "},"L":{"ha":578,"x_min":98,"x_max":572,"o":"m 289 0 q 140 71 193 0 q 106 149 115 106 q 110 243 98 192 l 264 972 l 379 972 l 250 364 q 249 316 245 338 q 266 278 254 294 q 297 252 278 262 q 342 243 317 243 l 572 243 l 519 0 l 289 0 z "},"M":{"ha":1154,"x_min":57,"x_max":1274,"o":"m 981 0 l 1109 607 q 1111 654 1115 632 q 1094 693 1106 677 q 1063 720 1082 710 q 1021 729 1044 729 l 905 729 q 858 720 881 729 q 815 694 835 710 q 782 655 796 677 q 762 607 768 633 l 635 0 l 519 0 l 648 607 q 651 655 654 633 q 635 694 647 677 q 603 720 623 710 q 558 729 584 729 l 444 729 q 397 720 420 729 q 354 693 374 710 q 320 654 334 677 q 301 607 307 632 l 172 0 l 57 0 l 212 729 q 318 900 233 829 q 404 954 360 936 q 496 972 448 972 l 564 972 q 634 961 602 972 q 691 928 667 949 q 730 876 715 906 q 749 807 745 845 q 797 876 768 845 q 858 928 825 906 q 928 961 891 949 q 1003 972 965 972 l 1072 972 q 1219 900 1166 972 q 1253 729 1274 828 l 1097 0 l 981 0 z "},"N":{"ha":693,"x_min":57,"x_max":809,"o":"m 519 0 l 648 607 q 651 655 654 633 q 635 694 647 677 q 603 720 623 710 q 558 729 584 729 l 444 729 q 397 720 420 729 q 354 693 374 710 q 320 654 334 677 q 301 607 307 632 l 172 0 l 57 0 l 212 729 q 317 900 233 829 q 496 972 401 972 l 610 972 q 695 955 659 972 q 760 901 732 937 q 790 729 809 831 l 635 0 l 519 0 z "},"O":{"ha":693,"x_min":98,"x_max":809,"o":"m 648 607 q 650 654 654 632 q 633 693 646 677 q 602 720 621 710 q 558 729 583 729 l 444 729 q 397 720 420 729 q 354 693 374 710 q 320 654 334 677 q 301 607 307 632 l 250 364 q 249 317 245 339 q 266 278 254 295 q 298 252 279 262 q 342 243 317 243 l 456 243 q 504 252 481 243 q 546 278 527 262 q 578 316 565 294 q 597 364 592 338 l 648 607 m 686 243 q 582 71 665 142 q 497 18 541 35 q 403 0 453 0 l 289 0 q 140 71 193 0 q 106 150 115 106 q 110 243 98 193 l 212 729 q 317 900 233 829 q 496 972 401 972 l 610 972 q 695 954 659 972 q 758 900 732 936 q 790 729 809 829 l 686 243 z "},"P":{"ha":693,"x_min":57,"x_max":809,"o":"m 597 637 q 597 673 601 656 q 585 702 594 690 q 562 722 576 715 q 530 729 548 729 l 328 729 l 289 547 l 492 547 q 527 554 509 547 q 558 574 544 562 q 583 602 573 586 q 597 637 593 618 m 777 668 q 672 497 755 568 q 586 444 630 462 q 493 425 542 425 l 262 425 l 172 0 l 57 0 l 264 972 l 610 972 q 695 954 659 972 q 758 900 732 936 q 790 729 809 829 l 777 668 z "},"Q":{"ha":693,"x_min":98,"x_max":809,"o":"m 648 607 q 650 654 654 632 q 633 693 646 677 q 602 720 621 710 q 558 729 583 729 l 444 729 q 397 720 420 729 q 354 693 374 710 q 320 654 334 677 q 301 607 307 632 l 250 364 q 249 317 245 339 q 266 278 254 295 q 298 252 279 262 q 342 243 317 243 l 456 243 q 504 252 481 243 q 546 278 527 262 q 578 316 565 294 q 597 364 592 338 l 648 607 m 441 -366 q 294 -294 344 -366 q 264 -122 241 -225 l 289 0 q 140 71 195 0 q 106 150 115 106 q 110 243 98 193 l 212 729 q 318 900 233 829 q 404 954 360 936 q 496 972 448 972 l 610 972 q 695 954 659 972 q 758 900 732 936 q 790 729 809 829 l 686 243 q 582 71 665 142 q 497 18 541 35 q 403 0 453 0 q 402 -48 397 -26 q 418 -87 406 -71 q 450 -113 431 -103 q 494 -122 469 -122 l 608 -122 l 557 -366 l 441 -366 z "},"R":{"ha":693,"x_min":57,"x_max":809,"o":"m 597 637 q 597 673 601 656 q 585 702 594 690 q 562 722 576 715 q 530 729 548 729 l 328 729 l 289 547 l 492 547 q 527 554 509 547 q 558 574 544 562 q 583 602 573 586 q 597 637 593 618 m 519 0 l 575 256 q 559 374 589 323 q 465 425 529 425 l 262 425 l 172 0 l 57 0 l 264 972 l 610 972 q 695 954 659 972 q 758 900 732 936 q 790 729 809 829 q 762 649 781 687 q 715 578 743 610 q 653 523 688 547 q 578 486 618 499 q 678 400 650 460 q 689 256 707 339 l 635 0 l 519 0 z "},"S":{"ha":693,"x_min":57,"x_max":840,"o":"m 686 243 q 582 72 665 142 q 403 0 499 0 l 57 0 l 110 243 l 428 243 q 463 250 446 243 q 494 270 479 258 q 518 299 508 283 q 532 335 528 316 q 533 370 536 353 q 520 398 530 386 q 497 418 511 410 q 465 425 483 425 l 379 425 q 294 444 331 425 q 232 497 258 462 q 199 668 178 569 l 212 729 q 318 900 233 829 q 404 954 360 936 q 496 972 448 972 l 840 972 l 790 729 l 472 729 q 437 722 454 729 q 406 702 420 715 q 381 673 391 690 q 367 637 370 656 q 366 602 363 618 q 378 574 369 586 q 401 554 387 562 q 433 547 416 547 l 519 547 q 605 529 568 547 q 667 475 641 511 q 699 304 722 405 l 686 243 z "},"T":{"ha":635,"x_min":184,"x_max":812,"o":"m 530 729 l 375 0 l 260 0 l 415 729 l 184 729 l 236 972 l 812 972 l 762 729 l 530 729 z "},"U":{"ha":693,"x_min":98,"x_max":840,"o":"m 686 243 q 582 71 665 142 q 497 18 541 35 q 403 0 453 0 l 289 0 q 140 71 193 0 q 106 150 115 106 q 110 243 98 193 l 264 972 l 379 972 l 250 364 q 249 317 245 339 q 266 278 254 295 q 298 252 279 262 q 342 243 317 243 l 456 243 q 504 252 481 243 q 546 278 527 262 q 578 316 565 294 q 597 364 592 338 l 726 972 l 840 972 l 686 243 z "},"V":{"ha":693,"x_min":57,"x_max":840,"o":"m 686 243 q 582 71 665 142 q 497 18 541 35 q 403 0 453 0 l 57 0 l 264 972 l 379 972 l 225 243 l 456 243 q 504 252 481 243 q 546 278 527 262 q 578 316 565 294 q 597 364 592 338 l 726 972 l 840 972 l 686 243 z "},"W":{"ha":1154,"x_min":87,"x_max":1304,"o":"m 1150 243 q 1113 150 1139 193 q 1044 72 1086 108 q 865 0 960 0 l 796 0 q 726 12 758 0 q 670 44 694 23 q 631 97 646 66 q 612 165 616 127 q 564 97 592 127 q 503 44 536 66 q 432 12 469 23 q 357 0 395 0 l 289 0 q 142 72 193 0 q 110 243 87 144 l 264 972 l 379 972 l 250 364 q 249 317 245 339 q 266 278 254 295 q 298 252 279 262 q 342 243 317 243 l 456 243 q 504 252 481 243 q 546 278 527 262 q 578 316 565 294 q 597 364 592 338 l 726 972 l 840 972 l 713 364 q 711 316 707 338 q 727 278 715 294 q 758 252 739 262 q 802 243 777 243 l 918 243 q 965 252 942 243 q 1007 278 988 262 q 1040 317 1026 295 q 1059 364 1053 339 l 1187 972 l 1304 972 l 1150 243 z "},"X":{"ha":693,"x_min":57,"x_max":840,"o":"m 567 0 q 440 46 492 0 q 400 100 415 70 q 382 168 385 130 q 335 100 363 130 q 272 46 308 70 q 127 0 201 0 l 57 0 l 110 243 l 225 243 q 272 252 249 243 q 314 278 295 262 q 348 317 334 295 q 367 364 361 339 l 418 607 q 419 654 423 632 q 403 693 415 677 q 371 720 391 710 q 328 729 352 729 l 212 729 l 264 972 l 335 972 q 460 925 406 972 q 499 872 484 902 q 518 804 514 842 q 563 872 536 842 q 627 925 591 902 q 772 972 699 972 l 840 972 l 790 729 l 675 729 q 628 720 651 729 q 585 693 604 710 q 552 654 566 677 q 532 607 538 632 l 481 364 q 480 317 475 339 q 497 278 485 295 q 529 252 510 262 q 572 243 549 243 l 686 243 l 635 0 l 567 0 z "},"Y":{"ha":693,"x_min":160,"x_max":840,"o":"m 749 534 q 712 441 737 484 q 644 363 686 398 q 558 309 602 327 q 465 292 514 292 l 403 0 l 289 0 l 351 292 q 203 363 254 292 q 169 441 177 398 q 171 534 160 484 l 264 972 l 379 972 l 313 656 q 311 609 307 631 q 328 570 315 587 q 360 544 340 553 q 403 534 379 534 l 518 534 q 566 544 543 534 q 608 570 589 553 q 641 608 627 586 q 660 656 654 630 l 726 972 l 840 972 l 749 534 z "},"Z":{"ha":693,"x_min":57,"x_max":840,"o":"m 57 0 l 110 243 l 616 729 l 212 729 l 264 972 l 840 972 l 790 729 l 283 243 l 686 243 l 635 0 l 57 0 z "},"[":{"ha":403,"x_min":32,"x_max":521,"o":"m 32 -122 l 289 1093 l 521 1093 l 471 850 l 354 850 l 199 121 l 315 121 l 264 -122 l 32 -122 z "},"\\":{"ha":561,"x_min":249,"x_max":519,"o":"m 403 -106 l 249 1036 l 367 1078 l 519 -64 l 403 -106 z "},"]":{"ha":403,"x_min":90,"x_max":578,"o":"m 90 -122 l 140 121 l 257 121 l 412 850 l 296 850 l 347 1093 l 578 1093 l 321 -122 l 90 -122 z "},"^":{"ha":585,"x_min":170,"x_max":637,"o":"m 546 489 l 471 842 l 245 489 l 170 529 l 452 972 l 545 972 l 637 529 l 546 489 z "},"_":{"ha":547,"x_min":0,"x_max":547,"o":"m 0 0 l 0 121 l 547 121 l 547 0 l 0 0 z "},"`":{"ha":277,"x_min":264,"x_max":389,"o":"m 321 802 l 264 972 l 357 972 l 389 802 l 321 802 z "},"a":{"ha":693,"x_min":87,"x_max":786,"o":"m 624 486 q 625 534 629 512 q 608 572 621 556 q 576 598 596 589 q 532 607 557 607 l 418 607 q 371 597 394 607 q 329 572 348 588 q 295 533 309 555 q 277 486 281 511 l 250 364 q 249 317 245 339 q 266 278 254 295 q 298 252 279 262 q 342 243 317 243 l 456 243 q 503 252 479 243 q 545 278 526 262 q 578 317 564 295 q 597 364 592 339 l 624 486 m 519 0 l 538 82 q 481 20 526 42 q 444 4 463 9 q 403 0 424 0 l 289 0 q 142 72 193 0 q 110 243 87 144 l 186 607 q 223 701 197 658 q 292 779 250 743 q 471 850 374 850 l 585 850 q 670 833 633 850 q 733 781 707 817 q 762 607 786 709 l 635 0 l 519 0 z "},"b":{"ha":693,"x_min":98,"x_max":786,"o":"m 624 486 q 624 533 629 511 q 608 572 620 555 q 576 597 595 588 q 532 607 556 607 l 418 607 q 371 597 394 607 q 329 572 348 588 q 295 533 309 555 q 277 486 281 511 l 250 364 q 249 316 245 338 q 266 278 254 294 q 297 252 278 262 q 342 243 317 243 l 456 243 q 503 252 479 243 q 545 278 526 262 q 578 317 564 295 q 597 364 592 339 l 624 486 m 686 243 q 582 72 665 142 q 403 0 499 0 l 289 0 q 140 71 193 0 q 106 149 115 106 q 110 243 98 192 l 277 1034 l 393 1034 l 336 770 q 356 804 342 788 q 392 831 370 819 q 430 845 410 841 q 471 850 450 850 l 585 850 q 732 779 680 850 q 762 607 786 709 l 686 243 z "},"c":{"ha":693,"x_min":87,"x_max":815,"o":"m 289 0 q 142 72 193 0 q 110 243 87 144 l 186 607 q 223 701 197 658 q 292 779 250 743 q 471 850 374 850 l 815 850 l 762 607 l 418 607 q 371 597 394 607 q 329 572 348 588 q 295 533 309 555 q 277 486 281 511 l 250 364 q 249 317 245 339 q 266 278 254 295 q 298 252 279 262 q 342 243 317 243 l 686 243 l 635 0 l 289 0 z "},"d":{"ha":693,"x_min":87,"x_max":854,"o":"m 624 486 q 624 533 629 511 q 608 572 620 555 q 576 597 595 588 q 532 607 556 607 l 418 607 q 371 597 394 607 q 329 572 348 588 q 295 533 309 555 q 277 486 281 511 l 250 364 q 249 317 245 339 q 266 278 254 295 q 298 252 279 262 q 342 243 317 243 l 456 243 q 504 252 481 243 q 546 278 527 262 q 578 316 565 294 q 597 364 592 338 l 624 486 m 686 243 q 582 71 665 142 q 497 18 541 35 q 403 0 453 0 l 289 0 q 142 72 193 0 q 110 243 87 144 l 186 607 q 223 701 197 658 q 292 779 250 743 q 471 850 374 850 l 585 850 q 623 845 604 850 q 654 831 641 841 q 685 770 689 807 l 741 1034 l 854 1034 l 686 243 z "},"e":{"ha":693,"x_min":87,"x_max":815,"o":"m 289 0 q 142 72 193 0 q 110 243 87 144 l 186 607 q 223 701 197 658 q 292 779 250 743 q 471 850 374 850 l 815 850 l 762 607 l 418 607 q 371 597 394 607 q 329 572 348 588 q 295 533 309 555 q 277 486 281 511 l 624 486 l 597 364 l 250 364 q 249 317 245 339 q 266 278 254 295 q 298 252 279 262 q 342 243 317 243 l 686 243 l 635 0 l 289 0 z "},"f":{"ha":549,"x_min":57,"x_max":741,"o":"m 457 790 q 409 781 432 790 q 366 755 385 771 q 334 716 347 739 q 315 668 320 694 l 289 547 l 519 547 l 493 425 l 262 425 l 172 0 l 57 0 l 225 790 q 262 884 235 842 q 329 962 288 927 q 415 1016 371 998 q 510 1034 459 1034 l 741 1034 l 688 790 l 457 790 z "},"g":{"ha":693,"x_min":87,"x_max":786,"o":"m 624 486 q 624 533 629 511 q 608 572 620 555 q 576 597 595 588 q 532 607 556 607 l 418 607 q 371 597 394 607 q 329 572 348 588 q 295 533 309 555 q 277 486 281 511 l 250 364 q 249 317 245 339 q 266 278 254 295 q 298 252 279 262 q 342 243 317 243 l 456 243 q 504 252 481 243 q 546 278 527 262 q 578 316 565 294 q 597 364 592 338 l 624 486 m 608 -122 q 572 -216 598 -174 q 505 -294 546 -259 q 420 -348 464 -330 q 325 -366 376 -366 l 211 -366 l 264 -122 l 378 -122 q 426 -113 403 -122 q 468 -87 449 -103 q 500 -48 487 -71 q 519 0 514 -26 l 538 82 q 481 20 526 42 q 444 4 463 9 q 403 0 424 0 l 289 0 q 142 72 193 0 q 110 243 87 144 l 186 607 q 223 701 197 658 q 292 779 250 743 q 471 850 374 850 l 585 850 q 670 833 633 850 q 733 781 707 817 q 762 607 786 709 l 608 -122 z "},"h":{"ha":693,"x_min":57,"x_max":786,"o":"m 519 0 l 624 486 q 624 533 629 511 q 608 572 620 555 q 576 597 595 588 q 532 607 556 607 l 418 607 q 371 597 394 607 q 329 572 348 588 q 295 533 309 555 q 277 486 281 511 l 172 0 l 57 0 l 277 1034 l 393 1034 l 336 770 q 392 831 345 807 q 430 845 410 841 q 471 850 450 850 l 585 850 q 732 779 680 850 q 762 607 786 709 l 635 0 l 519 0 z "},"i":{"ha":231,"x_min":57,"x_max":354,"o":"m 57 0 l 237 850 l 354 850 l 172 0 l 57 0 z "},"j":{"ha":461,"x_min":-21,"x_max":585,"o":"m 378 -122 q 342 -216 368 -174 q 275 -294 316 -259 q 188 -348 233 -330 q 94 -366 144 -366 l -21 -366 l 32 -122 l 147 -122 q 196 -113 172 -122 q 238 -87 219 -103 q 270 -48 257 -71 q 289 0 283 -26 l 418 607 l 186 607 l 237 850 l 585 850 l 378 -122 z "},"k":{"ha":693,"x_min":57,"x_max":815,"o":"m 519 0 l 558 182 q 560 231 564 208 q 544 269 556 253 q 512 295 532 286 q 468 304 493 304 l 237 304 l 172 0 l 57 0 l 277 1034 l 393 1034 l 289 547 l 519 547 q 568 556 545 547 q 610 582 591 566 q 643 620 629 598 q 663 668 656 642 l 701 850 l 815 850 l 772 644 q 748 576 764 609 q 710 514 732 543 q 659 463 687 486 q 597 425 630 440 q 643 387 624 410 q 672 336 661 364 q 684 274 682 307 q 677 207 686 241 l 635 0 l 519 0 z "},"l":{"ha":317,"x_min":98,"x_max":393,"o":"m 289 0 q 140 71 193 0 q 106 149 115 106 q 110 243 98 192 l 277 1034 l 393 1034 l 250 364 q 249 316 245 338 q 266 278 254 294 q 297 252 278 262 q 342 243 317 243 l 289 0 z "},"m":{"ha":1154,"x_min":57,"x_max":1247,"o":"m 981 0 l 1083 486 q 1085 533 1089 511 q 1069 572 1081 555 q 1038 597 1057 588 q 994 607 1019 607 l 879 607 q 831 598 854 607 q 789 572 808 589 q 757 534 770 556 q 737 486 743 512 l 635 0 l 519 0 l 624 486 q 625 534 629 512 q 608 572 621 556 q 576 598 596 589 q 532 607 557 607 l 418 607 q 371 597 394 607 q 329 572 348 588 q 295 533 309 555 q 277 486 281 511 l 172 0 l 57 0 l 186 607 q 223 701 197 658 q 292 779 250 743 q 471 850 374 850 l 539 850 q 609 838 576 850 q 665 805 641 827 q 705 753 690 784 q 724 685 720 723 q 771 753 743 723 q 833 805 800 784 q 903 838 866 827 q 977 850 939 850 l 1046 850 q 1193 779 1143 850 q 1226 607 1247 707 l 1097 0 l 981 0 z "},"n":{"ha":693,"x_min":57,"x_max":786,"o":"m 519 0 l 624 486 q 625 534 629 512 q 608 572 621 556 q 576 598 596 589 q 532 607 557 607 l 418 607 q 371 597 394 607 q 329 572 348 588 q 295 533 309 555 q 277 486 281 511 l 172 0 l 57 0 l 186 607 q 223 701 197 658 q 290 779 250 743 q 471 850 373 850 l 585 850 q 670 833 633 850 q 733 781 707 817 q 762 607 786 709 l 635 0 l 519 0 z "},"o":{"ha":693,"x_min":98,"x_max":786,"o":"m 624 486 q 624 533 629 511 q 608 572 620 555 q 576 597 595 588 q 532 607 556 607 l 418 607 q 371 597 394 607 q 329 572 348 588 q 295 533 309 555 q 277 486 281 511 l 250 364 q 249 317 245 339 q 266 278 254 295 q 298 252 279 262 q 342 243 317 243 l 456 243 q 504 252 481 243 q 546 278 527 262 q 578 316 565 294 q 597 364 592 338 l 624 486 m 686 243 q 582 71 665 142 q 497 18 541 35 q 403 0 453 0 l 289 0 q 140 71 193 0 q 106 150 115 106 q 110 243 98 193 l 186 607 q 223 701 197 658 q 290 779 250 743 q 471 850 373 850 l 585 850 q 732 779 680 850 q 762 607 786 709 l 686 243 z "},"p":{"ha":693,"x_min":4,"x_max":786,"o":"m 624 486 q 624 533 629 511 q 608 572 620 555 q 576 597 595 588 q 532 607 556 607 l 418 607 q 370 598 393 607 q 328 572 347 589 q 295 534 309 556 q 277 486 281 512 l 250 364 q 249 317 245 339 q 266 278 254 295 q 298 252 279 262 q 342 243 317 243 l 456 243 q 503 252 479 243 q 545 278 526 262 q 578 317 564 295 q 597 364 592 339 l 624 486 m 686 243 q 582 72 665 142 q 403 0 499 0 l 289 0 q 251 4 269 0 q 218 20 233 9 q 189 82 184 43 l 121 -243 l 4 -243 l 186 607 q 223 701 197 658 q 290 781 250 745 q 376 833 332 817 q 471 850 420 850 l 585 850 q 732 779 680 850 q 762 607 786 709 l 686 243 z "},"q":{"ha":693,"x_min":87,"x_max":786,"o":"m 624 486 q 625 534 629 512 q 608 572 621 556 q 576 598 596 589 q 532 607 557 607 l 418 607 q 371 597 394 607 q 329 572 348 588 q 295 533 309 555 q 277 486 281 511 l 250 364 q 249 317 245 339 q 266 278 254 295 q 298 252 279 262 q 342 243 317 243 l 456 243 q 503 252 479 243 q 545 278 526 262 q 578 317 564 295 q 597 364 592 339 l 624 486 m 468 -243 l 538 82 q 481 20 526 42 q 444 4 463 9 q 403 0 424 0 l 289 0 q 142 72 193 0 q 110 243 87 144 l 186 607 q 223 701 197 658 q 292 779 250 743 q 471 850 374 850 l 585 850 q 670 833 633 850 q 733 781 707 817 q 762 607 786 709 l 582 -243 l 468 -243 z "},"r":{"ha":549,"x_min":57,"x_max":701,"o":"m 418 607 q 371 597 394 607 q 329 572 348 588 q 295 533 309 555 q 277 486 281 511 l 172 0 l 57 0 l 237 850 l 354 850 l 336 770 q 356 804 342 788 q 392 831 370 819 q 430 845 410 841 q 471 850 450 850 l 701 850 l 648 607 l 418 607 z "},"s":{"ha":693,"x_min":57,"x_max":815,"o":"m 686 243 q 582 72 665 142 q 403 0 499 0 l 57 0 l 110 243 l 456 243 q 501 260 481 243 q 526 304 521 278 q 527 328 529 317 q 518 347 524 338 q 503 359 512 355 q 481 364 493 364 l 367 364 q 282 382 318 364 q 218 436 245 400 q 186 607 165 507 q 223 701 197 658 q 292 779 250 743 q 471 850 374 850 l 815 850 l 762 607 l 418 607 q 373 590 393 607 q 347 547 353 572 q 355 504 342 522 q 393 486 369 486 l 507 486 q 592 468 555 486 q 654 414 628 450 q 689 336 682 378 q 686 243 696 294 z "},"t":{"ha":549,"x_min":98,"x_max":585,"o":"m 289 0 q 140 71 193 0 q 106 149 115 106 q 110 243 98 192 l 264 972 l 379 972 l 354 850 l 585 850 l 558 729 l 328 729 l 250 364 q 249 316 245 338 q 266 278 254 294 q 297 252 278 262 q 342 243 317 243 l 572 243 l 519 0 l 289 0 z "},"u":{"ha":693,"x_min":98,"x_max":815,"o":"m 686 243 q 582 71 665 142 q 497 18 541 35 q 403 0 453 0 l 289 0 q 140 71 193 0 q 106 150 115 106 q 110 243 98 193 l 237 850 l 354 850 l 250 364 q 249 317 245 339 q 266 278 254 295 q 298 252 279 262 q 342 243 317 243 l 456 243 q 504 252 481 243 q 546 278 527 262 q 578 316 565 294 q 597 364 592 338 l 701 850 l 815 850 l 686 243 z "},"v":{"ha":693,"x_min":57,"x_max":815,"o":"m 686 243 q 582 71 665 142 q 497 18 541 35 q 403 0 453 0 l 57 0 l 237 850 l 354 850 l 225 243 l 456 243 q 504 252 481 243 q 546 278 527 262 q 578 316 565 294 q 597 364 592 338 l 701 850 l 815 850 l 686 243 z "},"w":{"ha":1154,"x_min":87,"x_max":1278,"o":"m 1150 243 q 1113 150 1139 193 q 1044 72 1086 108 q 865 0 960 0 l 796 0 q 726 12 758 0 q 670 44 694 23 q 631 97 646 66 q 612 165 616 127 q 564 97 592 127 q 503 44 536 66 q 432 12 469 23 q 357 0 395 0 l 289 0 q 142 72 193 0 q 110 243 87 144 l 237 850 l 354 850 l 250 364 q 249 317 245 339 q 266 278 254 295 q 298 252 279 262 q 342 243 317 243 l 456 243 q 504 252 481 243 q 546 278 527 262 q 578 316 565 294 q 597 364 592 338 l 701 850 l 815 850 l 713 364 q 711 316 707 338 q 727 278 715 294 q 758 252 739 262 q 802 243 777 243 l 918 243 q 965 252 942 243 q 1007 278 988 262 q 1040 317 1026 295 q 1059 364 1053 339 l 1161 850 l 1278 850 l 1150 243 z "},"x":{"ha":693,"x_min":57,"x_max":815,"o":"m 567 0 q 440 46 492 0 q 400 100 415 70 q 382 168 385 130 q 335 100 363 130 q 272 46 308 70 q 127 0 201 0 l 57 0 l 110 243 l 225 243 q 272 252 249 243 q 314 278 295 262 q 348 317 334 295 q 367 364 361 339 l 393 486 q 394 533 398 511 q 377 572 389 555 q 345 597 364 588 q 301 607 326 607 l 186 607 l 237 850 l 309 850 q 376 838 345 850 q 432 803 407 827 q 473 750 458 780 q 490 684 488 721 q 538 750 510 721 q 600 803 566 780 q 673 838 637 827 q 747 850 709 850 l 815 850 l 762 607 l 648 607 q 602 597 625 607 q 559 572 578 588 q 526 533 540 555 q 507 486 512 511 l 481 364 q 480 317 475 339 q 497 278 485 295 q 529 252 510 262 q 572 243 549 243 l 686 243 l 635 0 l 567 0 z "},"y":{"ha":693,"x_min":87,"x_max":815,"o":"m 608 -122 q 572 -216 598 -174 q 505 -294 546 -259 q 420 -348 464 -330 q 325 -366 376 -366 l 211 -366 l 264 -122 l 378 -122 q 426 -113 403 -122 q 468 -87 449 -103 q 500 -48 487 -71 q 519 0 514 -26 l 538 82 q 481 20 526 42 q 444 4 463 9 q 403 0 424 0 l 289 0 q 142 72 193 0 q 110 243 87 144 l 237 850 l 354 850 l 250 364 q 249 317 245 339 q 266 278 254 295 q 298 252 279 262 q 342 243 317 243 l 456 243 q 504 252 481 243 q 546 278 527 262 q 578 316 565 294 q 597 364 592 338 l 701 850 l 815 850 l 608 -122 z "},"z":{"ha":693,"x_min":57,"x_max":815,"o":"m 57 0 l 110 243 l 555 607 l 186 607 l 237 850 l 815 850 l 762 607 l 318 243 l 686 243 l 635 0 l 57 0 z "},"{":{"ha":519,"x_min":147,"x_max":636,"o":"m 378 -122 q 294 -104 331 -122 q 231 -50 258 -85 q 199 121 178 22 l 262 425 l 147 425 l 174 547 l 289 547 l 354 850 q 460 1022 373 951 q 636 1093 541 1093 l 585 850 q 538 840 561 850 q 496 814 515 831 q 463 776 477 798 q 444 729 450 754 l 342 243 q 340 196 336 218 q 356 157 344 174 q 387 131 368 140 q 429 121 406 121 l 378 -122 z "},"|":{"ha":231,"x_min":32,"x_max":404,"o":"m 32 -122 l 289 1093 l 404 1093 l 147 -122 l 32 -122 z "},"}":{"ha":519,"x_min":90,"x_max":578,"o":"m 436 425 l 372 121 q 335 28 361 71 q 267 -50 309 -14 q 181 -104 226 -85 q 90 -122 137 -122 l 140 121 q 188 131 164 121 q 230 157 211 140 q 263 196 250 174 q 283 243 277 218 l 386 729 q 387 776 391 754 q 370 814 382 798 q 339 840 358 831 q 296 850 319 850 l 347 1093 q 496 1022 444 1093 q 529 944 521 987 q 528 850 537 901 l 463 547 l 578 547 l 551 425 l 436 425 z "},"~":{"ha":600,"x_min":138,"x_max":654,"o":"m 633 425 q 548 389 591 401 q 461 376 505 376 q 385 401 430 376 q 343 419 361 413 q 309 425 324 425 q 222 413 264 425 q 138 376 180 401 l 158 473 q 243 511 201 499 q 329 522 285 522 q 406 498 359 522 q 481 473 452 473 q 569 486 526 473 q 654 522 612 498 l 633 425 z "},"€":{"ha":693,"x_min":87,"x_max":840,"o":"m 289 0 q 142 72 193 0 q 110 243 87 144 l 212 729 q 318 900 233 829 q 404 954 360 936 q 496 972 448 972 l 840 972 l 790 729 l 444 729 q 397 720 420 729 q 354 693 374 710 q 320 654 334 677 q 301 607 307 632 l 648 607 l 631 522 l 283 522 l 268 450 l 616 450 l 597 364 l 250 364 q 249 317 245 339 q 266 278 254 295 q 298 252 279 262 q 342 243 317 243 l 686 243 l 635 0 l 289 0 z "},"‚":{"ha":277,"x_min":57,"x_max":256,"o":"m 78 -122 l 87 -74 l 157 -74 l 172 0 l 57 0 l 93 170 l 256 170 l 193 -122 l 78 -122 z "},"ƒ":{"ha":664,"x_min":-252,"x_max":854,"o":"m 782 790 l 551 790 q 503 781 526 790 q 460 756 479 772 q 425 718 440 740 q 401 668 410 695 q 390 635 399 665 q 364 547 380 605 l 596 547 l 559 425 l 329 425 l 203 0 q 188 -50 197 -20 q 168 -122 178 -80 q 47 -296 132 -226 q -136 -366 -37 -366 l -252 -366 l -179 -122 l -64 -122 q -15 -113 -39 -122 q 29 -87 9 -103 q 64 -48 49 -71 q 87 0 79 -26 l 321 790 q 439 962 353 893 q 529 1016 484 998 q 624 1034 574 1034 l 854 1034 l 782 790 z "},"„":{"ha":530,"x_min":57,"x_max":510,"o":"m 78 -122 l 87 -74 l 157 -74 l 172 0 l 57 0 l 93 170 l 256 170 l 193 -122 l 78 -122 m 332 -122 l 342 -74 l 411 -74 l 427 0 l 311 0 l 347 170 l 510 170 l 447 -122 l 332 -122 z "},"…":{"ha":831,"x_min":57,"x_max":810,"o":"m 57 0 l 93 170 l 256 170 l 218 0 l 57 0 m 335 0 l 371 170 l 533 170 l 497 0 l 335 0 m 612 0 l 648 170 l 810 170 l 772 0 l 612 0 z "},"†":{"ha":578,"x_min":179,"x_max":675,"o":"m 475 607 l 294 -243 l 179 -243 l 359 607 l 186 607 l 212 729 l 386 729 l 437 972 l 553 972 l 501 729 l 675 729 l 648 607 l 475 607 z "},"‡":{"ha":578,"x_min":110,"x_max":675,"o":"m 399 243 l 294 -243 l 179 -243 l 283 243 l 110 243 l 135 364 l 309 364 l 359 607 l 186 607 l 212 729 l 386 729 l 437 972 l 553 972 l 501 729 l 675 729 l 648 607 l 475 607 l 424 364 l 597 364 l 572 243 l 399 243 z "},"ˆ":{"ha":393,"x_min":228,"x_max":504,"o":"m 436 802 l 387 904 l 297 802 l 228 802 l 357 972 l 449 972 l 504 802 l 436 802 z "},"‰":{"ha":1581,"x_min":159,"x_max":1628,"o":"m 551 699 q 552 734 555 718 q 539 763 549 751 q 516 783 530 776 q 485 790 503 790 l 399 790 q 364 783 381 790 q 332 763 347 776 q 308 734 318 751 q 293 699 297 718 l 273 607 q 273 572 270 589 q 286 544 277 556 q 309 524 294 531 q 340 517 323 517 l 427 517 q 462 524 445 517 q 494 543 479 530 q 518 571 508 555 q 532 607 528 587 l 551 699 m 1169 364 q 1170 399 1173 382 q 1157 428 1166 416 q 1134 448 1148 441 q 1103 456 1120 456 l 1015 456 q 979 448 997 456 q 947 428 962 441 q 922 399 932 416 q 908 364 912 382 l 889 273 q 888 238 885 255 q 901 209 892 222 q 924 189 910 197 q 957 182 939 182 l 1044 182 q 1080 189 1063 182 q 1112 208 1097 196 q 1136 237 1126 220 q 1150 273 1146 254 l 1169 364 m 1515 364 q 1515 399 1519 382 q 1502 428 1512 416 q 1479 448 1493 441 q 1447 456 1465 456 l 1361 456 q 1326 448 1343 456 q 1294 428 1309 441 q 1270 399 1280 416 q 1255 364 1259 382 l 1236 273 q 1235 237 1232 254 q 1246 208 1238 220 q 1270 189 1255 196 q 1303 182 1284 182 l 1389 182 q 1424 189 1407 182 q 1456 209 1441 197 q 1481 238 1470 222 q 1496 273 1492 255 l 1515 364 m 600 517 q 572 446 591 478 q 522 386 553 414 q 387 335 461 335 l 301 335 q 191 387 233 335 q 165 446 172 414 q 167 517 159 479 l 225 790 q 254 860 233 828 q 304 918 274 892 q 437 972 365 972 l 524 972 q 636 918 594 972 q 659 790 675 865 l 600 517 m 559 0 l 766 972 l 882 972 l 675 0 l 559 0 m 1563 182 q 1535 112 1554 144 q 1483 53 1516 80 q 1350 0 1422 0 l 1310 0 q 1256 9 1281 0 q 1210 35 1230 18 q 1177 76 1190 52 q 1161 127 1164 99 q 1124 76 1147 99 q 1074 35 1101 52 q 1016 9 1046 18 q 957 0 986 0 l 918 0 q 807 53 846 0 q 782 112 788 80 q 783 182 775 144 l 842 456 q 869 525 849 493 q 920 585 889 557 q 1054 637 981 637 l 1093 637 q 1148 628 1122 637 q 1194 602 1174 619 q 1227 562 1214 585 q 1243 510 1240 538 q 1281 562 1258 538 q 1331 602 1303 585 q 1388 628 1358 619 q 1446 637 1417 637 l 1486 637 q 1597 585 1556 637 q 1623 525 1617 557 q 1621 456 1628 493 l 1563 182 z "},"Š":{"ha":693,"x_min":57,"x_max":840,"o":"m 686 243 q 582 72 665 142 q 403 0 499 0 l 57 0 l 110 243 l 428 243 q 463 250 446 243 q 494 270 479 258 q 518 299 508 283 q 532 335 528 316 q 533 370 536 353 q 520 398 530 386 q 497 418 511 410 q 465 425 483 425 l 379 425 q 294 444 331 425 q 232 497 258 462 q 199 668 178 569 l 212 729 q 318 900 233 829 q 404 954 360 936 q 496 972 448 972 l 840 972 l 790 729 l 472 729 q 437 722 454 729 q 406 702 420 715 q 381 673 391 690 q 367 637 370 656 q 366 602 363 618 q 378 574 369 586 q 401 554 387 562 q 433 547 416 547 l 519 547 q 605 529 568 547 q 667 475 641 511 q 699 304 722 405 l 686 243 m 615 1044 l 522 1044 l 467 1215 l 536 1215 l 583 1112 l 675 1215 l 743 1215 l 615 1044 z "},"‹":{"ha":456,"x_min":150,"x_max":538,"o":"m 399 239 l 150 437 l 171 534 l 503 733 l 538 652 l 258 486 l 467 321 l 399 239 z "},"Œ":{"ha":981,"x_min":98,"x_max":1131,"o":"m 648 607 q 650 654 654 632 q 633 693 646 677 q 602 720 621 710 q 558 729 583 729 l 444 729 q 397 720 420 729 q 354 693 374 710 q 320 654 334 677 q 301 607 307 632 l 250 364 q 249 317 245 339 q 266 278 254 295 q 298 252 279 262 q 342 243 317 243 l 456 243 q 504 252 481 243 q 546 278 527 262 q 578 316 565 294 q 597 364 592 338 l 648 607 m 796 0 q 727 12 758 0 q 672 47 695 24 q 635 102 649 70 q 616 174 621 134 q 570 102 598 134 q 508 47 542 70 q 435 12 473 24 q 357 0 396 0 l 289 0 q 140 71 193 0 q 106 150 115 106 q 110 243 98 193 l 212 729 q 317 900 233 829 q 496 972 401 972 l 564 972 q 648 955 612 972 q 713 903 684 937 l 726 972 l 1131 972 l 1079 729 l 790 729 l 751 547 l 925 547 l 899 425 l 724 425 l 713 364 q 711 316 707 338 q 727 278 715 294 q 758 252 739 262 q 802 243 777 243 l 977 243 l 924 0 l 796 0 z "},"Ž":{"ha":693,"x_min":57,"x_max":840,"o":"m 57 0 l 110 243 l 616 729 l 212 729 l 264 972 l 840 972 l 790 729 l 283 243 l 686 243 l 635 0 l 57 0 m 615 1044 l 522 1044 l 467 1215 l 536 1215 l 583 1112 l 675 1215 l 743 1215 l 615 1044 z "},"‘":{"ha":277,"x_min":215,"x_max":412,"o":"m 215 742 l 277 1034 l 393 1034 l 382 985 l 313 985 l 296 911 l 412 911 l 376 742 l 215 742 z "},"’":{"ha":277,"x_min":240,"x_max":439,"o":"m 261 742 l 271 790 l 340 790 l 355 863 l 240 863 l 277 1034 l 439 1034 l 376 742 l 261 742 z "},"“":{"ha":530,"x_min":215,"x_max":665,"o":"m 215 742 l 277 1034 l 393 1034 l 382 985 l 313 985 l 296 911 l 412 911 l 376 742 l 215 742 m 469 742 l 530 1034 l 646 1034 l 636 985 l 567 985 l 550 911 l 665 911 l 631 742 l 469 742 z "},"”":{"ha":530,"x_min":240,"x_max":693,"o":"m 261 742 l 271 790 l 340 790 l 355 863 l 240 863 l 277 1034 l 439 1034 l 376 742 l 261 742 m 515 742 l 525 790 l 595 790 l 610 863 l 494 863 l 530 1034 l 693 1034 l 631 742 l 515 742 z "},"•":{"ha":519,"x_min":154,"x_max":546,"o":"m 505 340 q 486 292 500 314 q 454 253 473 269 q 412 228 435 237 q 364 218 389 218 l 248 218 q 205 228 224 218 q 174 254 186 237 q 158 293 162 271 q 160 340 154 315 l 195 510 q 214 557 199 535 q 247 596 228 580 q 290 623 267 613 q 336 632 313 632 l 452 632 q 494 623 475 632 q 526 596 513 613 q 542 557 538 580 q 541 510 546 535 l 505 340 z "},"–":{"ha":461,"x_min":138,"x_max":504,"o":"m 138 376 l 158 473 l 504 473 l 484 376 l 138 376 z "},"—":{"ha":693,"x_min":138,"x_max":734,"o":"m 138 376 l 158 473 l 734 473 l 714 376 l 138 376 z "},"˜":{"ha":461,"x_min":233,"x_max":610,"o":"m 589 875 q 529 838 559 850 q 465 827 499 827 q 412 850 443 827 q 384 869 398 863 q 358 875 370 875 q 293 863 325 875 q 233 827 262 852 l 254 924 q 314 961 283 949 q 379 972 346 972 q 432 947 401 972 q 486 924 462 924 q 550 935 519 924 q 610 972 581 947 l 589 875 z "},"™":{"ha":1293,"x_min":225,"x_max":1419,"o":"m 1226 364 l 1297 699 q 1297 734 1301 718 q 1285 763 1294 751 q 1261 783 1276 776 q 1229 790 1247 790 l 1143 790 q 1107 783 1124 790 q 1075 764 1089 777 q 1050 735 1061 752 q 1036 699 1040 718 l 966 364 l 879 364 l 950 699 q 940 764 958 739 q 884 790 921 790 l 798 790 q 763 783 780 790 q 731 763 745 776 q 706 734 717 751 q 692 699 696 718 l 621 364 l 533 364 l 624 790 l 485 790 l 395 364 l 309 364 l 399 790 l 225 790 l 264 972 l 697 972 l 682 899 q 836 972 749 972 l 888 972 q 940 963 916 972 q 982 938 964 954 q 1011 899 1000 922 q 1025 848 1022 876 q 1061 899 1040 876 q 1107 938 1082 922 q 1160 963 1133 954 q 1217 972 1188 972 l 1268 972 q 1381 918 1341 972 q 1404 790 1419 866 l 1314 364 l 1226 364 z "},"š":{"ha":693,"x_min":57,"x_max":815,"o":"m 686 243 q 582 72 665 142 q 403 0 499 0 l 57 0 l 110 243 l 456 243 q 501 260 481 243 q 526 304 521 278 q 527 328 529 317 q 518 347 524 338 q 503 359 512 355 q 481 364 493 364 l 367 364 q 282 382 318 364 q 218 436 245 400 q 186 607 165 507 q 223 701 197 658 q 292 779 250 743 q 471 850 374 850 l 815 850 l 762 607 l 418 607 q 373 590 393 607 q 347 547 353 572 q 355 504 342 522 q 393 486 369 486 l 507 486 q 592 468 555 486 q 654 414 628 450 q 689 336 682 378 q 686 243 696 294 m 589 924 l 497 924 l 440 1093 l 510 1093 l 557 991 l 647 1093 l 717 1093 l 589 924 z "},"›":{"ha":456,"x_min":125,"x_max":513,"o":"m 160 239 l 125 321 l 403 486 l 196 652 l 264 733 l 513 534 l 492 437 l 160 239 z "},"œ":{"ha":1039,"x_min":98,"x_max":1161,"o":"m 624 486 q 624 533 629 511 q 608 572 620 555 q 576 597 595 588 q 532 607 556 607 l 418 607 q 371 597 394 607 q 329 572 348 588 q 295 533 309 555 q 277 486 281 511 l 250 364 q 249 317 245 339 q 266 278 254 295 q 298 252 279 262 q 342 243 317 243 l 456 243 q 504 252 481 243 q 546 278 527 262 q 578 316 565 294 q 597 364 592 338 l 624 486 m 796 0 q 671 46 723 0 q 612 167 618 92 q 564 98 592 129 q 503 45 536 67 q 433 12 470 24 q 357 0 395 0 l 289 0 q 140 71 193 0 q 106 150 115 106 q 110 243 98 193 l 186 607 q 223 701 197 658 q 290 779 250 743 q 471 850 373 850 l 539 850 q 664 803 613 850 q 704 750 689 780 q 722 684 719 721 q 769 750 741 721 q 831 803 796 780 q 904 838 867 827 q 977 850 940 850 l 1161 850 l 1109 607 l 879 607 q 832 597 855 607 q 790 572 809 588 q 757 533 771 555 q 737 486 743 511 l 968 486 l 943 364 l 713 364 q 711 317 707 339 q 728 278 715 295 q 759 252 740 262 q 802 243 778 243 l 1034 243 l 981 0 l 796 0 z "},"ž":{"ha":693,"x_min":57,"x_max":815,"o":"m 57 0 l 110 243 l 555 607 l 186 607 l 237 850 l 815 850 l 762 607 l 318 243 l 686 243 l 635 0 l 57 0 m 589 924 l 497 924 l 440 1093 l 510 1093 l 557 991 l 647 1093 l 717 1093 l 589 924 z "},"Ÿ":{"ha":693,"x_min":160,"x_max":840,"o":"m 749 534 q 712 441 737 484 q 644 363 686 398 q 558 309 602 327 q 465 292 514 292 l 403 0 l 289 0 l 351 292 q 203 363 254 292 q 169 441 177 398 q 171 534 160 484 l 264 972 l 379 972 l 313 656 q 311 609 307 631 q 328 570 315 587 q 360 544 340 553 q 403 534 379 534 l 518 534 q 566 544 543 534 q 608 570 589 553 q 641 608 627 586 q 660 656 654 630 l 726 972 l 840 972 l 749 534 m 395 1044 l 421 1166 l 538 1166 l 511 1044 l 395 1044 m 627 1044 l 652 1166 l 768 1166 l 743 1044 l 627 1044 z "},"¡":{"ha":277,"x_min":32,"x_max":400,"o":"m 32 -122 l 222 558 l 292 558 l 193 -122 l 32 -122 m 201 681 l 237 850 l 400 850 l 364 681 l 201 681 z "},"¢":{"ha":693,"x_min":113,"x_max":840,"o":"m 488 121 l 461 0 l 346 0 l 372 121 l 315 121 q 230 139 267 121 q 168 193 194 157 q 135 364 113 262 l 212 729 q 318 900 233 829 q 404 954 360 936 q 496 972 448 972 l 553 972 l 578 1093 l 694 1093 l 668 972 l 840 972 l 790 729 l 444 729 q 397 720 420 729 q 354 693 374 710 q 320 654 334 677 q 301 607 307 632 l 277 486 q 275 439 271 461 q 292 400 279 416 q 323 374 304 383 q 367 364 342 364 l 713 364 l 660 121 l 488 121 z "},"£":{"ha":693,"x_min":57,"x_max":741,"o":"m 57 0 l 225 790 q 262 884 235 842 q 329 962 288 927 q 415 1016 371 998 q 510 1034 459 1034 l 741 1034 l 688 790 l 457 790 q 409 781 432 790 q 366 755 385 771 q 334 716 347 739 q 315 668 320 694 l 289 547 l 519 547 l 493 425 l 262 425 l 225 243 l 686 243 l 635 0 l 57 0 z "},"¤":{"ha":693,"x_min":87,"x_max":840,"o":"m 289 0 q 142 72 193 0 q 110 243 87 144 l 212 729 q 318 900 233 829 q 404 954 360 936 q 496 972 448 972 l 840 972 l 790 729 l 444 729 q 397 720 420 729 q 354 693 374 710 q 320 654 334 677 q 301 607 307 632 l 648 607 l 631 522 l 283 522 l 268 450 l 616 450 l 597 364 l 250 364 q 249 317 245 339 q 266 278 254 295 q 298 252 279 262 q 342 243 317 243 l 686 243 l 635 0 l 289 0 z "},"¥":{"ha":693,"x_min":82,"x_max":840,"o":"m 429 121 l 403 0 l 289 0 l 315 121 l 82 121 l 110 243 l 342 243 l 367 364 l 135 364 l 160 486 l 393 486 q 307 504 344 486 q 244 557 271 522 q 210 636 217 593 q 212 729 202 679 l 264 972 l 379 972 l 338 778 q 337 731 332 753 q 354 692 341 709 q 386 666 366 675 q 429 656 405 656 l 543 656 q 591 665 568 656 q 633 690 614 674 q 666 729 652 707 q 685 778 680 751 l 726 972 l 840 972 l 790 729 q 753 635 779 678 q 685 557 728 593 q 600 504 644 522 q 507 486 556 486 l 737 486 l 713 364 l 481 364 l 456 243 l 686 243 l 660 121 l 429 121 z "},"¦":{"ha":231,"x_min":32,"x_max":404,"o":"m 32 -122 l 142 401 l 257 401 l 147 -122 l 32 -122 m 179 571 l 289 1093 l 404 1093 l 294 571 l 179 571 z "},"§":{"ha":693,"x_min":4,"x_max":840,"o":"m 539 364 q 539 412 544 389 q 523 451 535 434 q 492 477 511 467 q 450 486 473 486 q 403 477 426 486 q 360 451 380 467 q 327 412 341 434 q 309 364 313 389 q 308 317 303 339 q 324 278 312 295 q 356 252 336 262 q 399 243 375 243 q 445 252 422 243 q 487 278 468 262 q 520 317 506 295 q 539 364 534 339 m 635 0 q 597 -93 623 -50 q 529 -171 572 -135 q 444 -225 488 -208 q 351 -243 399 -243 l 4 -243 l 57 0 l 403 0 q 427 5 415 0 q 448 18 438 9 q 465 38 458 26 q 475 61 472 49 q 474 84 477 73 q 466 103 472 95 q 451 116 460 111 q 429 121 441 121 l 315 121 q 230 139 267 121 q 168 193 194 157 q 135 364 113 262 q 253 547 157 474 q 211 629 220 584 q 212 729 201 674 q 318 900 233 829 q 404 954 360 936 q 496 972 448 972 l 840 972 l 790 729 l 444 729 q 420 724 432 729 q 399 711 409 720 q 383 691 390 703 q 374 668 376 680 q 372 645 370 656 q 380 626 374 634 q 396 612 387 617 q 418 607 406 607 l 532 607 q 618 589 581 607 q 681 536 654 572 q 714 458 707 500 q 713 364 722 415 q 596 182 687 254 q 635 0 657 109 z "},"¨":{"ha":461,"x_min":237,"x_max":610,"o":"m 237 850 l 264 972 l 379 972 l 354 850 l 237 850 m 471 850 l 496 972 l 610 972 l 585 850 l 471 850 z "},"©":{"ha":808,"x_min":98,"x_max":884,"o":"m 383 146 q 341 155 359 146 q 310 181 322 165 q 293 219 298 197 q 294 267 289 241 l 345 510 q 364 557 350 535 q 398 596 378 580 q 440 623 417 613 q 488 632 464 632 l 660 632 l 633 510 l 461 510 q 437 505 449 510 q 416 492 426 500 q 399 473 406 484 q 390 450 392 463 l 364 328 q 364 304 361 315 q 372 285 366 294 q 388 272 378 277 q 410 267 397 267 l 582 267 l 557 146 l 383 146 m 804 583 q 806 630 810 608 q 789 669 802 652 q 758 694 777 685 q 715 704 739 704 l 392 704 q 345 694 368 704 q 303 669 322 685 q 271 630 284 652 q 252 583 257 608 l 170 195 q 168 147 163 170 q 184 108 172 125 q 215 82 196 92 q 257 72 233 72 l 582 72 q 629 81 606 72 q 671 107 652 91 q 703 146 690 123 q 722 195 716 168 l 804 583 m 802 243 q 697 71 781 142 q 612 18 656 35 q 519 0 568 0 l 289 0 q 140 71 193 0 q 106 150 115 106 q 110 243 98 193 l 171 534 q 275 705 191 634 q 361 760 317 741 q 454 778 406 778 l 685 778 q 831 705 780 778 q 864 534 884 635 l 802 243 z "},"ª":{"ha":549,"x_min":159,"x_max":675,"o":"m 551 699 q 541 764 559 739 q 485 790 522 790 l 399 790 q 364 783 381 790 q 332 763 347 776 q 308 734 318 751 q 293 699 297 718 l 273 607 q 273 572 270 589 q 286 544 277 556 q 309 524 294 531 q 340 517 323 517 l 427 517 q 461 524 444 517 q 493 544 479 531 q 518 572 507 556 q 532 607 528 589 l 551 699 m 473 335 l 488 395 q 447 349 481 366 q 418 338 433 341 q 387 335 403 335 l 301 335 q 191 387 233 335 q 165 446 172 414 q 167 517 159 479 l 225 790 q 254 860 233 828 q 304 918 274 892 q 437 972 365 972 l 524 972 q 588 959 560 972 q 636 918 615 945 q 659 790 675 865 l 561 335 l 473 335 z "},"«":{"ha":802,"x_min":100,"x_max":832,"o":"m 347 0 l 100 199 l 121 296 l 452 493 l 486 412 l 208 248 l 415 82 l 347 0 m 694 0 l 446 199 l 467 296 l 799 493 l 832 412 l 554 248 l 762 82 l 694 0 z "},"¬":{"ha":578,"x_min":138,"x_max":621,"o":"m 481 256 l 507 376 l 138 376 l 158 473 l 621 473 l 575 256 l 481 256 z "},"®":{"ha":808,"x_min":98,"x_max":884,"o":"m 559 465 q 555 497 565 484 q 528 510 545 510 l 425 510 l 406 419 l 509 419 q 525 423 517 419 q 541 433 534 427 q 553 448 548 439 q 559 465 558 456 m 522 146 l 549 273 q 542 334 556 309 q 496 358 528 358 l 393 358 l 349 146 l 292 146 l 395 632 l 568 632 q 611 623 592 632 q 642 596 630 613 q 657 557 653 580 q 656 510 661 535 q 620 433 646 464 q 551 389 593 402 q 602 346 588 375 q 607 273 615 317 l 579 146 l 522 146 m 804 583 q 806 630 810 608 q 789 669 802 652 q 758 694 777 685 q 715 704 739 704 l 392 704 q 345 694 368 704 q 303 669 322 685 q 271 630 284 652 q 252 583 257 608 l 170 195 q 168 147 163 170 q 184 108 172 125 q 215 82 196 92 q 257 72 233 72 l 582 72 q 629 81 606 72 q 671 107 652 91 q 703 146 690 123 q 722 195 716 168 l 804 583 m 802 243 q 697 71 781 142 q 612 18 656 35 q 519 0 568 0 l 289 0 q 140 71 193 0 q 106 150 115 106 q 110 243 98 193 l 171 534 q 275 705 191 634 q 361 760 317 741 q 454 778 406 778 l 685 778 q 831 705 780 778 q 864 534 884 635 l 802 243 z "},"°":{"ha":393,"x_min":233,"x_max":534,"o":"m 478 888 q 479 925 483 907 q 465 956 475 943 q 439 977 455 969 q 404 985 423 985 q 367 977 385 985 q 334 956 349 969 q 308 925 319 943 q 292 888 296 907 q 291 849 288 867 q 305 818 295 831 q 330 798 315 805 q 364 790 345 790 q 401 798 382 790 q 435 818 420 805 q 463 849 451 831 q 478 888 474 867 m 522 888 q 461 783 510 826 q 354 742 412 742 q 265 783 296 742 q 245 888 233 826 q 269 944 252 918 q 309 990 285 969 q 360 1022 334 1011 q 415 1034 387 1034 q 467 1022 445 1034 q 504 990 488 1011 q 522 888 534 949 z "},"±":{"ha":578,"x_min":57,"x_max":635,"o":"m 57 0 l 78 97 l 541 97 l 519 0 l 57 0 m 428 437 l 386 243 l 294 243 l 335 437 l 150 437 l 171 534 l 355 534 l 397 729 l 490 729 l 449 534 l 635 534 l 614 437 l 428 437 z "},"²":{"ha":403,"x_min":186,"x_max":559,"o":"m 186 607 l 218 760 q 238 807 224 785 q 271 845 252 829 q 313 871 290 861 q 359 880 336 880 l 383 880 q 434 891 415 879 q 457 928 453 904 q 451 959 460 945 q 424 972 441 972 l 264 972 l 289 1093 l 463 1093 q 506 1084 486 1093 q 537 1058 525 1074 q 554 1020 550 1042 q 553 972 559 998 l 547 942 q 527 895 541 917 q 494 856 513 873 q 451 830 475 840 q 404 821 428 821 l 334 821 q 300 807 316 821 q 281 775 285 794 l 271 729 l 501 729 l 475 607 l 186 607 z "},"³":{"ha":403,"x_min":186,"x_max":557,"o":"m 501 729 q 482 682 496 704 q 449 643 468 660 q 406 617 429 627 q 359 607 383 607 l 186 607 l 212 729 l 374 729 q 406 743 391 729 q 425 775 420 758 q 419 807 429 794 q 392 821 408 821 l 289 821 l 302 880 l 404 880 q 422 884 413 880 q 438 895 431 888 q 450 910 445 901 q 457 928 455 918 q 451 959 460 945 q 424 972 441 972 l 264 972 l 289 1093 l 463 1093 q 507 1083 488 1093 q 539 1057 527 1074 q 554 1016 551 1040 q 551 966 557 993 q 537 928 547 947 q 514 895 528 910 q 483 868 500 880 q 447 850 466 856 q 501 729 521 824 z "},"´":{"ha":277,"x_min":264,"x_max":389,"o":"m 321 802 l 264 972 l 357 972 l 389 802 l 321 802 z "},"µ":{"ha":693,"x_min":4,"x_max":815,"o":"m 289 0 q 251 4 269 0 q 218 20 233 9 q 189 82 184 43 l 121 -243 l 4 -243 l 237 850 l 354 850 l 250 364 q 249 317 245 339 q 266 278 254 295 q 298 252 279 262 q 342 243 317 243 l 572 243 l 701 850 l 815 850 l 635 0 l 289 0 z "},"μ":{"ha":693,"x_min":4,"x_max":815,"o":"m 289 0 q 251 4 269 0 q 218 20 233 9 q 189 82 184 43 l 121 -243 l 4 -243 l 237 850 l 354 850 l 250 364 q 249 317 245 339 q 266 278 254 295 q 298 252 279 262 q 342 243 317 243 l 572 243 l 701 850 l 815 850 l 635 0 l 289 0 z "},"¶":{"ha":808,"x_min":178,"x_max":957,"o":"m 815 850 l 582 -243 l 468 -243 l 701 850 l 585 850 l 351 -243 l 237 -243 l 379 425 q 294 444 331 425 q 232 497 258 462 q 199 668 178 569 l 212 729 q 318 900 233 829 q 404 954 360 936 q 496 972 448 972 l 957 972 l 930 850 l 815 850 z "},"·":{"ha":277,"x_min":131,"x_max":326,"o":"m 131 340 l 165 510 l 326 510 l 292 340 l 131 340 z "},"¸":{"ha":300,"x_min":4,"x_max":217,"o":"m 210 -146 q 195 -184 205 -166 q 169 -215 184 -201 q 135 -235 153 -228 q 98 -243 117 -243 l 4 -243 l 25 -207 l 107 -207 q 130 -202 119 -207 q 151 -189 141 -197 q 167 -169 160 -180 q 176 -146 174 -158 q 168 -103 181 -121 q 132 -85 155 -85 l 74 -85 l 121 24 l 189 24 l 158 -52 q 203 -86 189 -59 q 210 -146 217 -113 z "},"¹":{"ha":231,"x_min":186,"x_max":376,"o":"m 186 607 l 212 729 l 241 729 l 293 972 l 264 972 l 289 1093 l 376 1093 l 300 729 l 328 729 l 301 607 l 186 607 z "},"º":{"ha":549,"x_min":159,"x_max":675,"o":"m 551 699 q 552 734 555 718 q 539 763 549 751 q 516 783 530 776 q 485 790 503 790 l 399 790 q 364 783 381 790 q 332 763 347 776 q 308 734 318 751 q 293 699 297 718 l 273 607 q 273 572 270 589 q 286 544 277 556 q 309 524 294 531 q 340 517 323 517 l 427 517 q 462 524 445 517 q 494 543 479 530 q 518 571 508 555 q 532 607 528 587 l 551 699 m 600 517 q 572 446 591 478 q 522 386 553 414 q 387 335 461 335 l 301 335 q 191 387 233 335 q 165 446 172 414 q 167 517 159 479 l 225 790 q 254 860 233 828 q 304 918 274 892 q 437 972 365 972 l 524 972 q 636 918 594 972 q 659 790 675 865 l 600 517 z "},"»":{"ha":802,"x_min":74,"x_max":808,"o":"m 109 0 l 74 82 l 353 248 l 144 412 l 212 493 l 461 296 l 441 199 l 109 0 m 454 0 l 421 82 l 699 248 l 490 412 l 558 493 l 808 296 l 787 199 l 454 0 z "},"¼":{"ha":578,"x_min":153,"x_max":631,"o":"m 357 0 l 372 68 l 187 68 l 235 292 l 281 292 l 254 165 l 393 165 l 440 389 l 486 389 l 403 0 l 357 0 m 153 450 l 168 522 l 631 522 l 616 450 l 153 450 m 366 583 l 386 681 l 411 681 l 452 875 l 428 875 l 449 972 l 518 972 l 456 681 l 479 681 l 458 583 l 366 583 z "},"½":{"ha":578,"x_min":153,"x_max":631,"o":"m 172 0 l 199 121 q 214 159 203 141 q 240 190 225 176 q 274 211 256 203 q 313 218 293 218 l 346 218 q 389 256 380 218 q 363 292 396 292 l 235 292 l 256 389 l 393 389 q 428 381 412 389 q 452 360 443 373 q 466 329 462 347 q 465 292 469 311 l 461 267 q 445 229 456 247 q 419 198 434 212 q 385 177 404 185 q 347 170 366 170 l 290 170 q 248 134 256 170 l 239 97 l 424 97 l 403 0 l 172 0 m 153 450 l 168 522 l 631 522 l 616 450 l 153 450 m 366 583 l 386 681 l 411 681 l 452 875 l 428 875 l 449 972 l 518 972 l 456 681 l 479 681 l 458 583 l 366 583 z "},"¾":{"ha":578,"x_min":153,"x_max":631,"o":"m 357 0 l 372 68 l 187 68 l 235 292 l 281 292 l 254 165 l 393 165 l 440 389 l 486 389 l 403 0 l 357 0 m 153 450 l 168 522 l 631 522 l 616 450 l 153 450 m 549 681 q 533 643 545 661 q 507 611 522 625 q 473 591 492 598 q 435 583 454 583 l 296 583 l 317 681 l 444 681 q 486 717 478 681 q 461 753 494 753 l 379 753 l 389 802 l 471 802 q 513 839 505 802 q 486 875 521 875 l 358 875 l 379 972 l 518 972 q 552 965 537 972 q 576 944 567 957 q 589 912 586 930 q 589 875 593 895 l 587 869 q 505 778 573 798 q 549 681 563 755 z "},"¿":{"ha":624,"x_min":63,"x_max":689,"o":"m 264 -122 q 178 -104 215 -122 q 115 -50 141 -85 q 82 121 63 22 q 189 293 104 222 q 367 364 271 364 l 458 364 l 511 558 l 581 558 l 536 243 l 342 243 q 318 238 330 243 q 296 225 307 233 q 279 205 286 216 q 269 182 272 194 q 269 159 267 170 q 278 139 271 148 q 294 126 284 131 q 315 121 303 121 l 591 121 l 541 -122 l 264 -122 m 490 681 l 528 850 l 689 850 l 653 681 l 490 681 z "},"À":{"ha":693,"x_min":57,"x_max":809,"o":"m 648 607 q 651 655 654 633 q 635 694 647 677 q 603 720 623 710 q 558 729 584 729 l 444 729 q 397 720 420 729 q 354 693 374 710 q 320 654 334 677 q 301 607 307 632 l 250 364 l 597 364 l 648 607 m 519 0 l 572 243 l 225 243 l 172 0 l 57 0 l 212 729 q 318 900 233 829 q 404 954 360 936 q 496 972 448 972 l 610 972 q 695 955 659 972 q 760 901 732 937 q 790 729 809 831 l 635 0 l 519 0 m 533 1044 l 478 1215 l 570 1215 l 603 1044 l 533 1044 z "},"Á":{"ha":693,"x_min":57,"x_max":809,"o":"m 648 607 q 651 655 654 633 q 635 694 647 677 q 603 720 623 710 q 558 729 584 729 l 444 729 q 397 720 420 729 q 354 693 374 710 q 320 654 334 677 q 301 607 307 632 l 250 364 l 597 364 l 648 607 m 519 0 l 572 243 l 225 243 l 172 0 l 57 0 l 212 729 q 318 900 233 829 q 404 954 360 936 q 496 972 448 972 l 610 972 q 695 955 659 972 q 760 901 732 937 q 790 729 809 831 l 635 0 l 519 0 m 603 1044 l 533 1044 l 639 1215 l 732 1215 l 603 1044 z "},"Â":{"ha":693,"x_min":57,"x_max":809,"o":"m 648 607 q 651 655 654 633 q 635 694 647 677 q 603 720 623 710 q 558 729 584 729 l 444 729 q 397 720 420 729 q 354 693 374 710 q 320 654 334 677 q 301 607 307 632 l 250 364 l 597 364 l 648 607 m 519 0 l 572 243 l 225 243 l 172 0 l 57 0 l 212 729 q 318 900 233 829 q 404 954 360 936 q 496 972 448 972 l 610 972 q 695 955 659 972 q 760 901 732 937 q 790 729 809 831 l 635 0 l 519 0 m 637 1044 l 590 1147 l 500 1044 l 431 1044 l 558 1215 l 652 1215 l 707 1044 l 637 1044 z "},"Ã":{"ha":693,"x_min":57,"x_max":809,"o":"m 648 607 q 651 655 654 633 q 635 694 647 677 q 603 720 623 710 q 558 729 584 729 l 444 729 q 397 720 420 729 q 354 693 374 710 q 320 654 334 677 q 301 607 307 632 l 250 364 l 597 364 l 648 607 m 519 0 l 572 243 l 225 243 l 172 0 l 57 0 l 212 729 q 318 900 233 829 q 404 954 360 936 q 496 972 448 972 l 610 972 q 695 955 659 972 q 760 901 732 937 q 790 729 809 831 l 635 0 l 519 0 m 753 1093 q 627 1044 694 1044 q 602 1051 615 1044 q 574 1069 588 1058 q 546 1087 559 1081 q 521 1093 532 1093 q 395 1044 452 1093 l 415 1141 q 476 1179 445 1167 q 542 1190 507 1190 q 595 1166 565 1190 q 622 1148 609 1155 q 646 1141 635 1141 q 712 1154 682 1141 q 772 1190 743 1166 l 753 1093 z "},"Ä":{"ha":693,"x_min":57,"x_max":809,"o":"m 648 607 q 651 655 654 633 q 635 694 647 677 q 603 720 623 710 q 558 729 584 729 l 444 729 q 397 720 420 729 q 354 693 374 710 q 320 654 334 677 q 301 607 307 632 l 250 364 l 597 364 l 648 607 m 519 0 l 572 243 l 225 243 l 172 0 l 57 0 l 212 729 q 318 900 233 829 q 404 954 360 936 q 496 972 448 972 l 610 972 q 695 955 659 972 q 760 901 732 937 q 790 729 809 831 l 635 0 l 519 0 m 395 1044 l 421 1166 l 538 1166 l 511 1044 l 395 1044 m 627 1044 l 652 1166 l 768 1166 l 743 1044 l 627 1044 z "},"Å":{"ha":693,"x_min":57,"x_max":799,"o":"m 648 607 q 651 655 654 633 q 635 694 647 677 q 603 720 623 710 q 558 729 584 729 l 444 729 q 397 720 420 729 q 354 693 374 710 q 320 654 334 677 q 301 607 307 632 l 250 364 l 597 364 l 648 607 m 665 1069 q 666 1107 669 1089 q 653 1138 663 1124 q 629 1159 644 1151 q 595 1166 614 1166 q 556 1159 575 1166 q 523 1138 538 1151 q 496 1107 507 1124 q 481 1069 485 1089 q 480 1031 477 1049 q 494 1001 484 1014 q 518 980 503 987 q 553 972 533 972 q 591 980 572 972 q 625 1001 610 987 q 651 1031 640 1014 q 665 1069 662 1049 m 519 0 l 572 243 l 225 243 l 172 0 l 57 0 l 212 729 q 298 885 232 817 q 452 968 368 951 q 435 1069 422 1010 q 497 1173 447 1131 q 549 1204 521 1193 q 606 1215 577 1215 q 656 1204 634 1215 q 694 1173 679 1193 q 714 1126 709 1152 q 713 1069 719 1100 q 691 1014 706 1039 q 653 968 677 989 q 722 939 692 960 q 771 885 751 918 q 794 812 790 851 q 790 729 799 774 l 635 0 l 519 0 z "},"Æ":{"ha":981,"x_min":57,"x_max":1131,"o":"m 648 607 q 651 655 654 633 q 635 694 647 677 q 603 720 623 710 q 558 729 584 729 l 444 729 q 397 720 420 729 q 354 693 374 710 q 320 654 334 677 q 301 607 307 632 l 250 364 l 597 364 l 648 607 m 750 0 q 602 71 654 0 q 572 243 551 142 l 225 243 l 172 0 l 57 0 l 212 729 q 318 900 233 829 q 404 954 360 936 q 496 972 448 972 l 564 972 q 648 955 612 972 q 713 904 684 938 l 726 972 l 1131 972 l 1079 729 l 790 729 l 751 547 l 925 547 l 899 425 l 724 425 l 713 364 q 711 316 707 338 q 727 278 715 294 q 758 252 739 262 q 802 243 777 243 l 977 243 l 924 0 l 750 0 z "},"Ç":{"ha":693,"x_min":87,"x_max":840,"o":"m 422 0 l 400 -52 q 445 -86 430 -59 q 453 -146 460 -113 q 438 -184 449 -166 q 412 -215 427 -201 q 378 -235 397 -228 q 340 -243 359 -243 l 248 -243 l 267 -207 l 349 -207 q 372 -202 361 -207 q 393 -189 384 -197 q 409 -169 403 -180 q 418 -146 416 -158 q 418 -122 420 -134 q 410 -103 416 -111 q 395 -90 404 -94 q 374 -85 386 -85 l 315 -85 l 354 0 l 289 0 q 142 72 193 0 q 110 243 87 144 l 212 729 q 318 900 233 829 q 404 954 360 936 q 496 972 448 972 l 840 972 l 790 729 l 444 729 q 397 720 420 729 q 354 693 374 710 q 320 654 334 677 q 301 607 307 632 l 250 364 q 249 317 245 339 q 266 278 254 295 q 298 252 279 262 q 342 243 317 243 l 686 243 l 635 0 l 422 0 z "},"È":{"ha":578,"x_min":98,"x_max":726,"o":"m 289 0 q 140 71 193 0 q 106 149 115 106 q 110 243 98 192 l 264 972 l 726 972 l 675 729 l 328 729 l 289 547 l 519 547 l 493 425 l 262 425 l 250 364 q 249 316 245 338 q 266 278 254 294 q 297 252 278 262 q 342 243 317 243 l 572 243 l 519 0 l 289 0 m 476 1044 l 421 1215 l 513 1215 l 546 1044 l 476 1044 z "},"É":{"ha":578,"x_min":98,"x_max":726,"o":"m 289 0 q 140 71 193 0 q 106 149 115 106 q 110 243 98 192 l 264 972 l 726 972 l 675 729 l 328 729 l 289 547 l 519 547 l 493 425 l 262 425 l 250 364 q 249 316 245 338 q 266 278 254 294 q 297 252 278 262 q 342 243 317 243 l 572 243 l 519 0 l 289 0 m 546 1044 l 476 1044 l 582 1215 l 675 1215 l 546 1044 z "},"Ê":{"ha":578,"x_min":98,"x_max":726,"o":"m 289 0 q 140 71 193 0 q 106 149 115 106 q 110 243 98 192 l 264 972 l 726 972 l 675 729 l 328 729 l 289 547 l 519 547 l 493 425 l 262 425 l 250 364 q 249 316 245 338 q 266 278 254 294 q 297 252 278 262 q 342 243 317 243 l 572 243 l 519 0 l 289 0 m 579 1044 l 533 1147 l 441 1044 l 374 1044 l 500 1215 l 593 1215 l 648 1044 l 579 1044 z "},"Ë":{"ha":578,"x_min":98,"x_max":726,"o":"m 289 0 q 140 71 193 0 q 106 149 115 106 q 110 243 98 192 l 264 972 l 726 972 l 675 729 l 328 729 l 289 547 l 519 547 l 493 425 l 262 425 l 250 364 q 249 316 245 338 q 266 278 254 294 q 297 252 278 262 q 342 243 317 243 l 572 243 l 519 0 l 289 0 m 338 1044 l 364 1166 l 479 1166 l 453 1044 l 338 1044 m 568 1044 l 595 1166 l 710 1166 l 685 1044 l 568 1044 z "},"Ì":{"ha":346,"x_min":57,"x_max":496,"o":"m 57 0 l 110 243 l 168 243 l 271 729 l 212 729 l 264 972 l 496 972 l 444 729 l 386 729 l 283 243 l 342 243 l 289 0 l 57 0 m 361 1044 l 306 1215 l 397 1215 l 431 1044 l 361 1044 z "},"Í":{"ha":346,"x_min":57,"x_max":558,"o":"m 57 0 l 110 243 l 168 243 l 271 729 l 212 729 l 264 972 l 496 972 l 444 729 l 386 729 l 283 243 l 342 243 l 289 0 l 57 0 m 431 1044 l 361 1044 l 467 1215 l 558 1215 l 431 1044 z "},"Î":{"ha":346,"x_min":57,"x_max":533,"o":"m 57 0 l 110 243 l 168 243 l 271 729 l 212 729 l 264 972 l 496 972 l 444 729 l 386 729 l 283 243 l 342 243 l 289 0 l 57 0 m 464 1044 l 416 1147 l 325 1044 l 257 1044 l 386 1215 l 478 1215 l 533 1044 l 464 1044 z "},"Ï":{"ha":346,"x_min":57,"x_max":595,"o":"m 57 0 l 110 243 l 168 243 l 271 729 l 212 729 l 264 972 l 496 972 l 444 729 l 386 729 l 283 243 l 342 243 l 289 0 l 57 0 m 222 1044 l 248 1166 l 364 1166 l 338 1044 l 222 1044 m 453 1044 l 479 1166 l 595 1166 l 568 1044 l 453 1044 z "},"Ð":{"ha":779,"x_min":119,"x_max":887,"o":"m 734 607 q 736 654 741 632 q 720 693 732 677 q 689 720 708 710 q 646 729 670 729 l 415 729 l 376 547 l 607 547 l 581 425 l 350 425 l 313 243 l 543 243 q 591 252 568 243 q 633 278 614 262 q 665 316 652 294 q 685 364 679 338 l 734 607 m 774 243 q 669 71 753 142 q 490 0 587 0 l 144 0 l 235 425 l 119 425 l 146 547 l 261 547 l 351 972 l 697 972 q 846 900 793 972 q 879 822 871 864 q 878 729 887 780 l 774 243 z "},"Ñ":{"ha":693,"x_min":57,"x_max":809,"o":"m 519 0 l 648 607 q 651 655 654 633 q 635 694 647 677 q 603 720 623 710 q 558 729 584 729 l 444 729 q 397 720 420 729 q 354 693 374 710 q 320 654 334 677 q 301 607 307 632 l 172 0 l 57 0 l 212 729 q 317 900 233 829 q 496 972 401 972 l 610 972 q 695 955 659 972 q 760 901 732 937 q 790 729 809 831 l 635 0 l 519 0 m 753 1093 q 627 1044 694 1044 q 602 1051 615 1044 q 574 1069 588 1058 q 546 1087 559 1081 q 521 1093 532 1093 q 395 1044 452 1093 l 415 1141 q 476 1179 445 1167 q 542 1190 507 1190 q 595 1166 565 1190 q 622 1148 609 1155 q 646 1141 635 1141 q 712 1154 682 1141 q 772 1190 743 1166 l 753 1093 z "},"Ò":{"ha":693,"x_min":98,"x_max":809,"o":"m 648 607 q 650 654 654 632 q 633 693 646 677 q 602 720 621 710 q 558 729 583 729 l 444 729 q 397 720 420 729 q 354 693 374 710 q 320 654 334 677 q 301 607 307 632 l 250 364 q 249 317 245 339 q 266 278 254 295 q 298 252 279 262 q 342 243 317 243 l 456 243 q 504 252 481 243 q 546 278 527 262 q 578 316 565 294 q 597 364 592 338 l 648 607 m 686 243 q 582 71 665 142 q 497 18 541 35 q 403 0 453 0 l 289 0 q 140 71 193 0 q 106 150 115 106 q 110 243 98 193 l 212 729 q 317 900 233 829 q 496 972 401 972 l 610 972 q 695 954 659 972 q 758 900 732 936 q 790 729 809 829 l 686 243 m 533 1044 l 478 1215 l 570 1215 l 603 1044 l 533 1044 z "},"Ó":{"ha":693,"x_min":98,"x_max":809,"o":"m 648 607 q 650 654 654 632 q 633 693 646 677 q 602 720 621 710 q 558 729 583 729 l 444 729 q 397 720 420 729 q 354 693 374 710 q 320 654 334 677 q 301 607 307 632 l 250 364 q 249 317 245 339 q 266 278 254 295 q 298 252 279 262 q 342 243 317 243 l 456 243 q 504 252 481 243 q 546 278 527 262 q 578 316 565 294 q 597 364 592 338 l 648 607 m 686 243 q 582 71 665 142 q 497 18 541 35 q 403 0 453 0 l 289 0 q 140 71 193 0 q 106 150 115 106 q 110 243 98 193 l 212 729 q 317 900 233 829 q 496 972 401 972 l 610 972 q 695 954 659 972 q 758 900 732 936 q 790 729 809 829 l 686 243 m 603 1044 l 533 1044 l 639 1215 l 732 1215 l 603 1044 z "},"Ô":{"ha":693,"x_min":98,"x_max":809,"o":"m 648 607 q 650 654 654 632 q 633 693 646 677 q 602 720 621 710 q 558 729 583 729 l 444 729 q 397 720 420 729 q 354 693 374 710 q 320 654 334 677 q 301 607 307 632 l 250 364 q 249 317 245 339 q 266 278 254 295 q 298 252 279 262 q 342 243 317 243 l 456 243 q 504 252 481 243 q 546 278 527 262 q 578 316 565 294 q 597 364 592 338 l 648 607 m 686 243 q 582 71 665 142 q 497 18 541 35 q 403 0 453 0 l 289 0 q 140 71 193 0 q 106 150 115 106 q 110 243 98 193 l 212 729 q 317 900 233 829 q 496 972 401 972 l 610 972 q 695 954 659 972 q 758 900 732 936 q 790 729 809 829 l 686 243 m 637 1044 l 590 1147 l 500 1044 l 431 1044 l 558 1215 l 652 1215 l 707 1044 l 637 1044 z "},"Õ":{"ha":693,"x_min":98,"x_max":809,"o":"m 648 607 q 650 654 654 632 q 633 693 646 677 q 602 720 621 710 q 558 729 583 729 l 444 729 q 397 720 420 729 q 354 693 374 710 q 320 654 334 677 q 301 607 307 632 l 250 364 q 249 317 245 339 q 266 278 254 295 q 298 252 279 262 q 342 243 317 243 l 456 243 q 504 252 481 243 q 546 278 527 262 q 578 316 565 294 q 597 364 592 338 l 648 607 m 686 243 q 582 71 665 142 q 497 18 541 35 q 403 0 453 0 l 289 0 q 140 71 193 0 q 106 150 115 106 q 110 243 98 193 l 212 729 q 317 900 233 829 q 496 972 401 972 l 610 972 q 695 954 659 972 q 758 900 732 936 q 790 729 809 829 l 686 243 m 753 1093 q 627 1044 694 1044 q 602 1051 615 1044 q 574 1069 588 1058 q 546 1087 559 1081 q 521 1093 532 1093 q 395 1044 452 1093 l 415 1141 q 476 1179 445 1167 q 542 1190 507 1190 q 595 1166 565 1190 q 622 1148 609 1155 q 646 1141 635 1141 q 712 1154 682 1141 q 772 1190 743 1166 l 753 1093 z "},"Ö":{"ha":693,"x_min":98,"x_max":809,"o":"m 648 607 q 650 654 654 632 q 633 693 646 677 q 602 720 621 710 q 558 729 583 729 l 444 729 q 397 720 420 729 q 354 693 374 710 q 320 654 334 677 q 301 607 307 632 l 250 364 q 249 317 245 339 q 266 278 254 295 q 298 252 279 262 q 342 243 317 243 l 456 243 q 504 252 481 243 q 546 278 527 262 q 578 316 565 294 q 597 364 592 338 l 648 607 m 686 243 q 582 71 665 142 q 497 18 541 35 q 403 0 453 0 l 289 0 q 140 71 193 0 q 106 150 115 106 q 110 243 98 193 l 212 729 q 317 900 233 829 q 496 972 401 972 l 610 972 q 695 954 659 972 q 758 900 732 936 q 790 729 809 829 l 686 243 m 395 1044 l 421 1166 l 538 1166 l 511 1044 l 395 1044 m 627 1044 l 652 1166 l 768 1166 l 743 1044 l 627 1044 z "},"×":{"ha":541,"x_min":114,"x_max":606,"o":"m 460 201 l 345 355 l 167 201 l 114 271 l 294 425 l 179 579 l 262 648 l 375 494 l 555 648 l 606 579 l 425 425 l 539 271 l 460 201 z "},"Ø":{"ha":693,"x_min":7,"x_max":892,"o":"m 648 607 q 652 636 653 623 q 646 665 651 650 l 283 262 q 342 243 307 243 l 456 243 q 504 252 481 243 q 546 278 527 262 q 578 316 565 294 q 597 364 592 338 l 648 607 m 616 710 q 589 725 603 720 q 558 729 576 729 l 444 729 q 397 720 420 729 q 354 693 374 710 q 320 654 334 677 q 301 607 307 632 l 250 364 q 248 335 247 349 q 253 307 249 321 l 616 710 m 791 825 q 796 778 797 802 q 790 729 795 754 l 686 243 q 582 71 665 142 q 497 18 541 35 q 403 0 453 0 l 289 0 q 127 92 178 0 l 46 0 l 7 36 l 109 147 q 103 194 103 170 q 110 243 104 217 l 212 729 q 317 900 233 829 q 496 972 401 972 l 610 972 q 772 880 720 972 l 852 972 l 892 936 l 791 825 z "},"Ù":{"ha":693,"x_min":98,"x_max":840,"o":"m 686 243 q 582 71 665 142 q 497 18 541 35 q 403 0 453 0 l 289 0 q 140 71 193 0 q 106 150 115 106 q 110 243 98 193 l 264 972 l 379 972 l 250 364 q 249 317 245 339 q 266 278 254 295 q 298 252 279 262 q 342 243 317 243 l 456 243 q 504 252 481 243 q 546 278 527 262 q 578 316 565 294 q 597 364 592 338 l 726 972 l 840 972 l 686 243 m 533 1044 l 478 1215 l 570 1215 l 603 1044 l 533 1044 z "},"Ú":{"ha":693,"x_min":98,"x_max":840,"o":"m 686 243 q 582 71 665 142 q 497 18 541 35 q 403 0 453 0 l 289 0 q 140 71 193 0 q 106 150 115 106 q 110 243 98 193 l 264 972 l 379 972 l 250 364 q 249 317 245 339 q 266 278 254 295 q 298 252 279 262 q 342 243 317 243 l 456 243 q 504 252 481 243 q 546 278 527 262 q 578 316 565 294 q 597 364 592 338 l 726 972 l 840 972 l 686 243 m 603 1044 l 533 1044 l 639 1215 l 732 1215 l 603 1044 z "},"Û":{"ha":693,"x_min":98,"x_max":840,"o":"m 686 243 q 582 71 665 142 q 497 18 541 35 q 403 0 453 0 l 289 0 q 140 71 193 0 q 106 150 115 106 q 110 243 98 193 l 264 972 l 379 972 l 250 364 q 249 317 245 339 q 266 278 254 295 q 298 252 279 262 q 342 243 317 243 l 456 243 q 504 252 481 243 q 546 278 527 262 q 578 316 565 294 q 597 364 592 338 l 726 972 l 840 972 l 686 243 m 637 1044 l 590 1147 l 500 1044 l 431 1044 l 558 1215 l 652 1215 l 707 1044 l 637 1044 z "},"Ü":{"ha":693,"x_min":98,"x_max":840,"o":"m 686 243 q 582 71 665 142 q 497 18 541 35 q 403 0 453 0 l 289 0 q 140 71 193 0 q 106 150 115 106 q 110 243 98 193 l 264 972 l 379 972 l 250 364 q 249 317 245 339 q 266 278 254 295 q 298 252 279 262 q 342 243 317 243 l 456 243 q 504 252 481 243 q 546 278 527 262 q 578 316 565 294 q 597 364 592 338 l 726 972 l 840 972 l 686 243 m 395 1044 l 421 1166 l 538 1166 l 511 1044 l 395 1044 m 627 1044 l 652 1166 l 768 1166 l 743 1044 l 627 1044 z "},"Ý":{"ha":693,"x_min":160,"x_max":840,"o":"m 749 534 q 712 441 737 484 q 644 363 686 398 q 558 309 602 327 q 465 292 514 292 l 403 0 l 289 0 l 351 292 q 203 363 254 292 q 169 441 177 398 q 171 534 160 484 l 264 972 l 379 972 l 313 656 q 311 609 307 631 q 328 570 315 587 q 360 544 340 553 q 403 534 379 534 l 518 534 q 566 544 543 534 q 608 570 589 553 q 641 608 627 586 q 660 656 654 630 l 726 972 l 840 972 l 749 534 m 603 1044 l 533 1044 l 639 1215 l 732 1215 l 603 1044 z "},"Þ":{"ha":693,"x_min":57,"x_max":766,"o":"m 551 425 q 552 460 555 444 q 539 489 549 477 q 516 509 530 502 q 485 517 503 517 l 282 517 l 243 335 l 446 335 q 481 342 463 335 q 513 361 498 349 q 537 390 527 374 q 551 425 548 406 m 732 456 q 695 362 720 405 q 627 285 669 320 q 541 231 585 249 q 449 212 497 212 l 218 212 l 172 0 l 57 0 l 264 972 l 379 972 l 335 760 l 566 760 q 650 741 614 760 q 713 688 686 723 q 743 517 766 618 l 732 456 z "},"ß":{"ha":693,"x_min":32,"x_max":809,"o":"m 686 243 q 582 72 665 142 q 403 0 499 0 l 289 0 l 342 243 l 428 243 q 463 250 446 243 q 494 270 479 258 q 518 299 508 283 q 532 335 528 316 q 533 370 536 353 q 520 398 530 386 q 497 418 511 410 q 465 425 483 425 l 379 425 l 406 547 l 492 547 q 527 554 509 547 q 558 574 544 562 q 583 602 573 586 q 597 637 593 618 q 597 673 601 656 q 585 702 594 690 q 562 722 576 715 q 530 729 548 729 l 415 729 q 380 722 397 729 q 348 702 363 715 q 322 673 333 690 q 309 637 312 656 l 147 -122 l 32 -122 l 212 729 q 317 901 233 831 q 403 955 359 937 q 496 972 447 972 l 610 972 q 695 954 659 972 q 758 900 732 936 q 790 729 809 829 l 786 717 q 760 642 778 678 q 713 575 742 606 q 650 520 684 543 q 578 486 616 498 q 638 450 613 473 q 676 394 663 426 q 692 323 690 362 q 686 243 695 285 z "},"à":{"ha":693,"x_min":87,"x_max":786,"o":"m 624 486 q 625 534 629 512 q 608 572 621 556 q 576 598 596 589 q 532 607 557 607 l 418 607 q 371 597 394 607 q 329 572 348 588 q 295 533 309 555 q 277 486 281 511 l 250 364 q 249 317 245 339 q 266 278 254 295 q 298 252 279 262 q 342 243 317 243 l 456 243 q 503 252 479 243 q 545 278 526 262 q 578 317 564 295 q 597 364 592 339 l 624 486 m 519 0 l 538 82 q 481 20 526 42 q 444 4 463 9 q 403 0 424 0 l 289 0 q 142 72 193 0 q 110 243 87 144 l 186 607 q 223 701 197 658 q 292 779 250 743 q 471 850 374 850 l 585 850 q 670 833 633 850 q 733 781 707 817 q 762 607 786 709 l 635 0 l 519 0 m 509 924 l 452 1093 l 543 1093 l 578 924 l 509 924 z "},"á":{"ha":693,"x_min":87,"x_max":786,"o":"m 624 486 q 625 534 629 512 q 608 572 621 556 q 576 598 596 589 q 532 607 557 607 l 418 607 q 371 597 394 607 q 329 572 348 588 q 295 533 309 555 q 277 486 281 511 l 250 364 q 249 317 245 339 q 266 278 254 295 q 298 252 279 262 q 342 243 317 243 l 456 243 q 503 252 479 243 q 545 278 526 262 q 578 317 564 295 q 597 364 592 339 l 624 486 m 519 0 l 538 82 q 481 20 526 42 q 444 4 463 9 q 403 0 424 0 l 289 0 q 142 72 193 0 q 110 243 87 144 l 186 607 q 223 701 197 658 q 292 779 250 743 q 471 850 374 850 l 585 850 q 670 833 633 850 q 733 781 707 817 q 762 607 786 709 l 635 0 l 519 0 m 578 924 l 509 924 l 612 1093 l 704 1093 l 578 924 z "},"â":{"ha":693,"x_min":87,"x_max":786,"o":"m 624 486 q 625 534 629 512 q 608 572 621 556 q 576 598 596 589 q 532 607 557 607 l 418 607 q 371 597 394 607 q 329 572 348 588 q 295 533 309 555 q 277 486 281 511 l 250 364 q 249 317 245 339 q 266 278 254 295 q 298 252 279 262 q 342 243 317 243 l 456 243 q 503 252 479 243 q 545 278 526 262 q 578 317 564 295 q 597 364 592 339 l 624 486 m 519 0 l 538 82 q 481 20 526 42 q 444 4 463 9 q 403 0 424 0 l 289 0 q 142 72 193 0 q 110 243 87 144 l 186 607 q 223 701 197 658 q 292 779 250 743 q 471 850 374 850 l 585 850 q 670 833 633 850 q 733 781 707 817 q 762 607 786 709 l 635 0 l 519 0 m 612 924 l 564 1025 l 473 924 l 404 924 l 532 1093 l 625 1093 l 682 924 l 612 924 z "},"ã":{"ha":693,"x_min":87,"x_max":786,"o":"m 624 486 q 625 534 629 512 q 608 572 621 556 q 576 598 596 589 q 532 607 557 607 l 418 607 q 371 597 394 607 q 329 572 348 588 q 295 533 309 555 q 277 486 281 511 l 250 364 q 249 317 245 339 q 266 278 254 295 q 298 252 279 262 q 342 243 317 243 l 456 243 q 503 252 479 243 q 545 278 526 262 q 578 317 564 295 q 597 364 592 339 l 624 486 m 519 0 l 538 82 q 481 20 526 42 q 444 4 463 9 q 403 0 424 0 l 289 0 q 142 72 193 0 q 110 243 87 144 l 186 607 q 223 701 197 658 q 292 779 250 743 q 471 850 374 850 l 585 850 q 670 833 633 850 q 733 781 707 817 q 762 607 786 709 l 635 0 l 519 0 m 726 972 q 665 935 696 947 q 600 924 635 924 q 549 947 578 924 q 496 972 518 972 q 430 961 461 972 q 370 924 398 949 l 390 1021 q 450 1058 418 1046 q 517 1069 482 1069 q 540 1063 527 1069 q 568 1044 553 1057 q 596 1027 583 1033 q 621 1021 610 1021 q 686 1033 655 1021 q 747 1069 717 1044 l 726 972 z "},"ä":{"ha":693,"x_min":87,"x_max":786,"o":"m 624 486 q 625 534 629 512 q 608 572 621 556 q 576 598 596 589 q 532 607 557 607 l 418 607 q 371 597 394 607 q 329 572 348 588 q 295 533 309 555 q 277 486 281 511 l 250 364 q 249 317 245 339 q 266 278 254 295 q 298 252 279 262 q 342 243 317 243 l 456 243 q 503 252 479 243 q 545 278 526 262 q 578 317 564 295 q 597 364 592 339 l 624 486 m 519 0 l 538 82 q 481 20 526 42 q 444 4 463 9 q 403 0 424 0 l 289 0 q 142 72 193 0 q 110 243 87 144 l 186 607 q 223 701 197 658 q 292 779 250 743 q 471 850 374 850 l 585 850 q 670 833 633 850 q 733 781 707 817 q 762 607 786 709 l 635 0 l 519 0 m 370 924 l 395 1044 l 511 1044 l 486 924 l 370 924 m 600 924 l 627 1044 l 743 1044 l 717 924 l 600 924 z "},"å":{"ha":693,"x_min":87,"x_max":786,"o":"m 624 486 q 625 534 629 512 q 608 572 621 556 q 576 598 596 589 q 532 607 557 607 l 418 607 q 371 597 394 607 q 329 572 348 588 q 295 533 309 555 q 277 486 281 511 l 250 364 q 249 317 245 339 q 266 278 254 295 q 298 252 279 262 q 342 243 317 243 l 456 243 q 503 252 479 243 q 545 278 526 262 q 578 317 564 295 q 597 364 592 339 l 624 486 m 665 1069 q 666 1107 669 1089 q 653 1138 663 1124 q 629 1159 644 1151 q 595 1166 614 1166 q 556 1159 575 1166 q 523 1138 538 1151 q 496 1107 507 1124 q 481 1069 485 1089 q 480 1031 477 1049 q 494 1001 484 1014 q 518 980 503 987 q 553 972 533 972 q 591 980 572 972 q 625 1001 610 987 q 651 1031 640 1014 q 665 1069 662 1049 m 519 0 l 538 82 q 481 20 526 42 q 444 4 463 9 q 403 0 424 0 l 289 0 q 142 72 193 0 q 110 243 87 144 l 186 607 q 223 701 197 658 q 292 779 250 743 q 471 850 374 850 l 585 850 q 670 833 633 850 q 733 781 707 817 q 762 607 786 709 l 635 0 l 519 0 m 713 1069 q 691 1013 706 1039 q 650 966 675 987 q 543 924 601 924 q 492 934 515 924 q 453 966 469 945 q 433 1013 437 987 q 435 1069 429 1039 q 497 1173 447 1131 q 549 1204 521 1193 q 606 1215 577 1215 q 656 1204 634 1215 q 694 1173 679 1193 q 714 1126 709 1152 q 713 1069 719 1100 z "},"æ":{"ha":1039,"x_min":87,"x_max":1161,"o":"m 624 486 q 625 534 629 512 q 608 572 621 556 q 576 598 596 589 q 532 607 557 607 l 418 607 q 371 597 394 607 q 329 572 348 588 q 295 533 309 555 q 277 486 281 511 l 250 364 q 249 317 245 339 q 266 278 254 295 q 298 252 279 262 q 342 243 317 243 l 456 243 q 503 252 479 243 q 545 278 526 262 q 578 317 564 295 q 597 364 592 339 l 624 486 m 796 0 q 648 71 703 0 l 635 0 l 519 0 l 538 82 q 481 20 526 42 q 444 4 463 9 q 403 0 424 0 l 289 0 q 142 72 193 0 q 110 243 87 144 l 186 607 q 223 701 197 658 q 292 779 250 743 q 471 850 374 850 l 539 850 q 609 838 577 850 q 665 805 641 826 q 704 753 689 783 q 724 685 720 722 q 832 804 760 758 q 977 850 902 850 l 1161 850 l 1109 607 l 879 607 q 832 597 855 607 q 790 572 809 588 q 757 533 771 555 q 737 486 743 511 l 968 486 l 943 364 l 713 364 q 711 317 707 339 q 728 278 715 295 q 759 252 740 262 q 802 243 778 243 l 1034 243 l 981 0 l 796 0 z "},"ç":{"ha":693,"x_min":87,"x_max":815,"o":"m 422 0 l 400 -52 q 445 -86 430 -59 q 453 -146 460 -113 q 438 -184 449 -166 q 412 -215 427 -201 q 378 -235 397 -228 q 340 -243 359 -243 l 248 -243 l 267 -207 l 349 -207 q 372 -202 361 -207 q 393 -189 384 -197 q 409 -169 403 -180 q 418 -146 416 -158 q 418 -122 420 -134 q 410 -103 416 -111 q 395 -90 404 -94 q 374 -85 386 -85 l 315 -85 l 354 0 l 289 0 q 142 72 193 0 q 110 243 87 144 l 186 607 q 223 701 197 658 q 292 779 250 743 q 471 850 374 850 l 815 850 l 762 607 l 418 607 q 371 597 394 607 q 329 572 348 588 q 295 533 309 555 q 277 486 281 511 l 250 364 q 249 317 245 339 q 266 278 254 295 q 298 252 279 262 q 342 243 317 243 l 686 243 l 635 0 l 422 0 z "},"è":{"ha":693,"x_min":87,"x_max":815,"o":"m 289 0 q 142 72 193 0 q 110 243 87 144 l 186 607 q 223 701 197 658 q 292 779 250 743 q 471 850 374 850 l 815 850 l 762 607 l 418 607 q 371 597 394 607 q 329 572 348 588 q 295 533 309 555 q 277 486 281 511 l 624 486 l 597 364 l 250 364 q 249 317 245 339 q 266 278 254 295 q 298 252 279 262 q 342 243 317 243 l 686 243 l 635 0 l 289 0 m 509 924 l 452 1093 l 543 1093 l 578 924 l 509 924 z "},"é":{"ha":693,"x_min":87,"x_max":815,"o":"m 289 0 q 142 72 193 0 q 110 243 87 144 l 186 607 q 223 701 197 658 q 292 779 250 743 q 471 850 374 850 l 815 850 l 762 607 l 418 607 q 371 597 394 607 q 329 572 348 588 q 295 533 309 555 q 277 486 281 511 l 624 486 l 597 364 l 250 364 q 249 317 245 339 q 266 278 254 295 q 298 252 279 262 q 342 243 317 243 l 686 243 l 635 0 l 289 0 m 578 924 l 509 924 l 612 1093 l 704 1093 l 578 924 z "},"ê":{"ha":693,"x_min":87,"x_max":815,"o":"m 289 0 q 142 72 193 0 q 110 243 87 144 l 186 607 q 223 701 197 658 q 292 779 250 743 q 471 850 374 850 l 815 850 l 762 607 l 418 607 q 371 597 394 607 q 329 572 348 588 q 295 533 309 555 q 277 486 281 511 l 624 486 l 597 364 l 250 364 q 249 317 245 339 q 266 278 254 295 q 298 252 279 262 q 342 243 317 243 l 686 243 l 635 0 l 289 0 m 612 924 l 564 1025 l 473 924 l 404 924 l 532 1093 l 625 1093 l 682 924 l 612 924 z "},"ë":{"ha":693,"x_min":87,"x_max":815,"o":"m 289 0 q 142 72 193 0 q 110 243 87 144 l 186 607 q 223 701 197 658 q 292 779 250 743 q 471 850 374 850 l 815 850 l 762 607 l 418 607 q 371 597 394 607 q 329 572 348 588 q 295 533 309 555 q 277 486 281 511 l 624 486 l 597 364 l 250 364 q 249 317 245 339 q 266 278 254 295 q 298 252 279 262 q 342 243 317 243 l 686 243 l 635 0 l 289 0 m 370 924 l 395 1044 l 511 1044 l 486 924 l 370 924 m 600 924 l 627 1044 l 743 1044 l 717 924 l 600 924 z "},"ì":{"ha":231,"x_min":57,"x_max":354,"o":"m 57 0 l 237 850 l 354 850 l 172 0 l 57 0 m 277 924 l 220 1093 l 313 1093 l 347 924 l 277 924 z "},"í":{"ha":231,"x_min":57,"x_max":473,"o":"m 57 0 l 237 850 l 354 850 l 172 0 l 57 0 m 347 924 l 277 924 l 383 1093 l 473 1093 l 347 924 z "},"î":{"ha":231,"x_min":57,"x_max":452,"o":"m 57 0 l 237 850 l 354 850 l 172 0 l 57 0 m 382 924 l 334 1025 l 243 924 l 174 924 l 301 1093 l 393 1093 l 452 924 l 382 924 z "},"ï":{"ha":231,"x_min":57,"x_max":511,"o":"m 57 0 l 237 850 l 354 850 l 172 0 l 57 0 m 139 924 l 164 1044 l 279 1044 l 254 924 l 139 924 m 370 924 l 395 1044 l 511 1044 l 486 924 l 370 924 z "},"ð":{"ha":693,"x_min":87,"x_max":970,"o":"m 624 486 q 624 533 629 511 q 608 572 620 555 q 576 597 595 588 q 532 607 556 607 l 418 607 q 371 597 394 607 q 329 572 348 588 q 295 533 309 555 q 277 486 281 511 l 250 364 q 249 317 245 339 q 266 278 254 295 q 298 252 279 262 q 342 243 317 243 l 456 243 q 504 252 481 243 q 546 278 527 262 q 578 316 565 294 q 597 364 592 338 l 624 486 m 828 911 l 686 243 q 582 71 665 142 q 497 18 541 35 q 403 0 453 0 l 289 0 q 142 72 193 0 q 110 243 87 144 l 186 607 q 223 701 197 658 q 292 779 250 743 q 471 850 374 850 l 585 850 q 623 845 604 850 q 654 831 641 841 q 685 770 689 807 l 714 911 l 597 911 l 624 1034 l 970 1034 l 943 911 l 828 911 z "},"ñ":{"ha":693,"x_min":57,"x_max":786,"o":"m 519 0 l 624 486 q 625 534 629 512 q 608 572 621 556 q 576 598 596 589 q 532 607 557 607 l 418 607 q 371 597 394 607 q 329 572 348 588 q 295 533 309 555 q 277 486 281 511 l 172 0 l 57 0 l 186 607 q 223 701 197 658 q 290 779 250 743 q 471 850 373 850 l 585 850 q 670 833 633 850 q 733 781 707 817 q 762 607 786 709 l 635 0 l 519 0 m 726 972 q 665 935 696 947 q 600 924 635 924 q 549 947 578 924 q 496 972 518 972 q 430 961 461 972 q 370 924 398 949 l 390 1021 q 450 1058 418 1046 q 517 1069 482 1069 q 540 1063 527 1069 q 568 1044 553 1057 q 596 1027 583 1033 q 621 1021 610 1021 q 686 1033 655 1021 q 747 1069 717 1044 l 726 972 z "},"ò":{"ha":693,"x_min":98,"x_max":786,"o":"m 624 486 q 624 533 629 511 q 608 572 620 555 q 576 597 595 588 q 532 607 556 607 l 418 607 q 371 597 394 607 q 329 572 348 588 q 295 533 309 555 q 277 486 281 511 l 250 364 q 249 317 245 339 q 266 278 254 295 q 298 252 279 262 q 342 243 317 243 l 456 243 q 504 252 481 243 q 546 278 527 262 q 578 316 565 294 q 597 364 592 338 l 624 486 m 686 243 q 582 71 665 142 q 497 18 541 35 q 403 0 453 0 l 289 0 q 140 71 193 0 q 106 150 115 106 q 110 243 98 193 l 186 607 q 223 701 197 658 q 290 779 250 743 q 471 850 373 850 l 585 850 q 732 779 680 850 q 762 607 786 709 l 686 243 m 509 924 l 452 1093 l 543 1093 l 578 924 l 509 924 z "},"ó":{"ha":693,"x_min":98,"x_max":786,"o":"m 624 486 q 624 533 629 511 q 608 572 620 555 q 576 597 595 588 q 532 607 556 607 l 418 607 q 371 597 394 607 q 329 572 348 588 q 295 533 309 555 q 277 486 281 511 l 250 364 q 249 317 245 339 q 266 278 254 295 q 298 252 279 262 q 342 243 317 243 l 456 243 q 504 252 481 243 q 546 278 527 262 q 578 316 565 294 q 597 364 592 338 l 624 486 m 686 243 q 582 71 665 142 q 497 18 541 35 q 403 0 453 0 l 289 0 q 140 71 193 0 q 106 150 115 106 q 110 243 98 193 l 186 607 q 223 701 197 658 q 290 779 250 743 q 471 850 373 850 l 585 850 q 732 779 680 850 q 762 607 786 709 l 686 243 m 578 924 l 509 924 l 612 1093 l 704 1093 l 578 924 z "},"ô":{"ha":693,"x_min":98,"x_max":786,"o":"m 624 486 q 624 533 629 511 q 608 572 620 555 q 576 597 595 588 q 532 607 556 607 l 418 607 q 371 597 394 607 q 329 572 348 588 q 295 533 309 555 q 277 486 281 511 l 250 364 q 249 317 245 339 q 266 278 254 295 q 298 252 279 262 q 342 243 317 243 l 456 243 q 504 252 481 243 q 546 278 527 262 q 578 316 565 294 q 597 364 592 338 l 624 486 m 686 243 q 582 71 665 142 q 497 18 541 35 q 403 0 453 0 l 289 0 q 140 71 193 0 q 106 150 115 106 q 110 243 98 193 l 186 607 q 223 701 197 658 q 290 779 250 743 q 471 850 373 850 l 585 850 q 732 779 680 850 q 762 607 786 709 l 686 243 m 612 924 l 564 1025 l 473 924 l 404 924 l 532 1093 l 625 1093 l 682 924 l 612 924 z "},"õ":{"ha":693,"x_min":98,"x_max":786,"o":"m 624 486 q 624 533 629 511 q 608 572 620 555 q 576 597 595 588 q 532 607 556 607 l 418 607 q 371 597 394 607 q 329 572 348 588 q 295 533 309 555 q 277 486 281 511 l 250 364 q 249 317 245 339 q 266 278 254 295 q 298 252 279 262 q 342 243 317 243 l 456 243 q 504 252 481 243 q 546 278 527 262 q 578 316 565 294 q 597 364 592 338 l 624 486 m 686 243 q 582 71 665 142 q 497 18 541 35 q 403 0 453 0 l 289 0 q 140 71 193 0 q 106 150 115 106 q 110 243 98 193 l 186 607 q 223 701 197 658 q 290 779 250 743 q 471 850 373 850 l 585 850 q 732 779 680 850 q 762 607 786 709 l 686 243 m 726 972 q 665 935 696 947 q 600 924 635 924 q 549 947 578 924 q 496 972 518 972 q 430 961 461 972 q 370 924 398 949 l 390 1021 q 450 1058 418 1046 q 517 1069 482 1069 q 540 1063 527 1069 q 568 1044 553 1057 q 596 1027 583 1033 q 621 1021 610 1021 q 686 1033 655 1021 q 747 1069 717 1044 l 726 972 z "},"ö":{"ha":693,"x_min":98,"x_max":786,"o":"m 624 486 q 624 533 629 511 q 608 572 620 555 q 576 597 595 588 q 532 607 556 607 l 418 607 q 371 597 394 607 q 329 572 348 588 q 295 533 309 555 q 277 486 281 511 l 250 364 q 249 317 245 339 q 266 278 254 295 q 298 252 279 262 q 342 243 317 243 l 456 243 q 504 252 481 243 q 546 278 527 262 q 578 316 565 294 q 597 364 592 338 l 624 486 m 686 243 q 582 71 665 142 q 497 18 541 35 q 403 0 453 0 l 289 0 q 140 71 193 0 q 106 150 115 106 q 110 243 98 193 l 186 607 q 223 701 197 658 q 290 779 250 743 q 471 850 373 850 l 585 850 q 732 779 680 850 q 762 607 786 709 l 686 243 m 370 924 l 395 1044 l 511 1044 l 486 924 l 370 924 m 600 924 l 627 1044 l 743 1044 l 717 924 l 600 924 z "},"÷":{"ha":578,"x_min":138,"x_max":621,"o":"m 227 85 l 262 256 l 424 256 l 387 85 l 227 85 m 138 376 l 158 473 l 621 473 l 600 376 l 138 376 m 335 596 l 371 765 l 532 765 l 496 596 l 335 596 z "},"ø":{"ha":693,"x_min":7,"x_max":865,"o":"m 578 597 q 557 605 570 603 q 532 607 545 607 l 418 607 q 371 597 394 607 q 329 572 348 588 q 295 533 309 555 q 277 486 281 511 l 250 364 q 248 323 245 342 q 261 286 251 303 l 578 597 m 624 486 q 626 529 628 509 q 612 566 623 548 l 294 254 q 316 246 304 249 q 342 243 328 243 l 456 243 q 504 252 481 243 q 546 278 527 262 q 578 316 565 294 q 597 364 592 338 l 624 486 m 764 714 q 762 607 777 663 l 686 243 q 582 71 665 142 q 497 18 541 35 q 403 0 453 0 l 289 0 q 127 92 176 0 l 35 0 l 7 36 l 110 138 q 110 243 98 186 l 186 607 q 223 701 197 658 q 290 779 250 743 q 471 850 373 850 l 585 850 q 746 760 697 850 l 839 850 l 865 814 l 764 714 z "},"ù":{"ha":693,"x_min":98,"x_max":815,"o":"m 686 243 q 582 71 665 142 q 497 18 541 35 q 403 0 453 0 l 289 0 q 140 71 193 0 q 106 150 115 106 q 110 243 98 193 l 237 850 l 354 850 l 250 364 q 249 317 245 339 q 266 278 254 295 q 298 252 279 262 q 342 243 317 243 l 456 243 q 504 252 481 243 q 546 278 527 262 q 578 316 565 294 q 597 364 592 338 l 701 850 l 815 850 l 686 243 m 509 924 l 452 1093 l 543 1093 l 578 924 l 509 924 z "},"ú":{"ha":693,"x_min":98,"x_max":815,"o":"m 686 243 q 582 71 665 142 q 497 18 541 35 q 403 0 453 0 l 289 0 q 140 71 193 0 q 106 150 115 106 q 110 243 98 193 l 237 850 l 354 850 l 250 364 q 249 317 245 339 q 266 278 254 295 q 298 252 279 262 q 342 243 317 243 l 456 243 q 504 252 481 243 q 546 278 527 262 q 578 316 565 294 q 597 364 592 338 l 701 850 l 815 850 l 686 243 m 578 924 l 509 924 l 612 1093 l 704 1093 l 578 924 z "},"û":{"ha":693,"x_min":98,"x_max":815,"o":"m 686 243 q 582 71 665 142 q 497 18 541 35 q 403 0 453 0 l 289 0 q 140 71 193 0 q 106 150 115 106 q 110 243 98 193 l 237 850 l 354 850 l 250 364 q 249 317 245 339 q 266 278 254 295 q 298 252 279 262 q 342 243 317 243 l 456 243 q 504 252 481 243 q 546 278 527 262 q 578 316 565 294 q 597 364 592 338 l 701 850 l 815 850 l 686 243 m 612 924 l 564 1025 l 473 924 l 404 924 l 532 1093 l 625 1093 l 682 924 l 612 924 z "},"ü":{"ha":693,"x_min":98,"x_max":815,"o":"m 686 243 q 582 71 665 142 q 497 18 541 35 q 403 0 453 0 l 289 0 q 140 71 193 0 q 106 150 115 106 q 110 243 98 193 l 237 850 l 354 850 l 250 364 q 249 317 245 339 q 266 278 254 295 q 298 252 279 262 q 342 243 317 243 l 456 243 q 504 252 481 243 q 546 278 527 262 q 578 316 565 294 q 597 364 592 338 l 701 850 l 815 850 l 686 243 m 370 924 l 395 1044 l 511 1044 l 486 924 l 370 924 m 600 924 l 627 1044 l 743 1044 l 717 924 l 600 924 z "},"ý":{"ha":693,"x_min":87,"x_max":815,"o":"m 608 -122 q 572 -216 598 -174 q 505 -294 546 -259 q 420 -348 464 -330 q 325 -366 376 -366 l 211 -366 l 264 -122 l 378 -122 q 426 -113 403 -122 q 468 -87 449 -103 q 500 -48 487 -71 q 519 0 514 -26 l 538 82 q 481 20 526 42 q 444 4 463 9 q 403 0 425 0 l 289 0 q 142 72 193 0 q 110 243 87 144 l 237 850 l 354 850 l 250 364 q 249 317 245 339 q 266 278 254 295 q 298 252 279 262 q 342 243 317 243 l 456 243 q 504 252 481 243 q 546 278 527 262 q 578 316 565 294 q 597 364 592 338 l 701 850 l 815 850 l 608 -122 m 578 924 l 509 924 l 612 1093 l 704 1093 l 578 924 z "},"þ":{"ha":693,"x_min":4,"x_max":749,"o":"m 597 364 q 598 412 602 389 q 581 451 593 434 q 550 477 569 467 q 507 486 531 486 l 277 486 l 225 243 l 456 243 q 503 252 479 243 q 545 278 526 262 q 578 317 564 295 q 597 364 592 339 m 686 243 q 582 72 665 142 q 403 0 499 0 l 172 0 l 121 -243 l 4 -243 l 264 972 l 379 972 l 328 729 l 558 729 q 644 711 608 729 q 705 657 680 692 q 741 579 734 621 q 737 486 749 536 l 686 243 z "},"ÿ":{"ha":693,"x_min":87,"x_max":815,"o":"m 608 -122 q 572 -216 598 -174 q 505 -294 546 -259 q 420 -348 464 -330 q 325 -366 376 -366 l 211 -366 l 264 -122 l 378 -122 q 426 -113 403 -122 q 468 -87 449 -103 q 500 -48 487 -71 q 519 0 514 -26 l 538 82 q 481 20 526 42 q 444 4 463 9 q 403 0 424 0 l 289 0 q 142 72 193 0 q 110 243 87 144 l 237 850 l 354 850 l 250 364 q 249 317 245 339 q 266 278 254 295 q 298 252 279 262 q 342 243 317 243 l 456 243 q 504 252 481 243 q 546 278 527 262 q 578 316 565 294 q 597 364 592 338 l 701 850 l 815 850 l 608 -122 m 370 924 l 395 1044 l 511 1044 l 486 924 l 370 924 m 600 924 l 627 1044 l 743 1044 l 717 924 l 600 924 z "},"¯":{"ha":547,"x_min":0,"x_max":547,"o":"m 0 850 l 0 972 l 547 972 l 547 850 l 0 850 z "},"ˉ":{"ha":547,"x_min":0,"x_max":547,"o":"m 0 850 l 0 972 l 547 972 l 547 850 l 0 850 z "},"ı":{"ha":231,"x_min":57,"x_max":354,"o":"m 57 0 l 237 850 l 354 850 l 172 0 l 57 0 z "},"ˇ":{"ha":393,"x_min":264,"x_max":541,"o":"m 412 802 l 321 802 l 264 972 l 335 972 l 380 869 l 472 972 l 541 972 l 412 802 z "},"˘":{"ha":1371,"x_min":61,"x_max":1310,"o":"m 465 293 l 465 518 l 543 518 l 543 293 l 465 293 m 812 160 l 521 160 l 547 220 l 790 220 l 694 456 l 693 456 l 693 517 l 760 517 l 760 693 l 465 693 l 465 911 l 329 911 l 329 456 l 151 456 l 151 61 l 852 61 l 812 160 m 1244 146 q 1092 236 1244 236 l 961 236 l 961 296 l 1104 296 q 1143 301 1125 296 q 1177 317 1161 307 q 1203 344 1194 330 q 1213 378 1213 359 q 1171 440 1213 420 q 1136 452 1155 449 q 1093 456 1116 456 l 757 456 l 921 60 l 1092 60 q 1150 62 1125 60 q 1190 72 1175 64 q 1244 146 1244 92 m 1310 136 q 1251 33 1310 71 q 1132 0 1204 0 l 90 0 l 90 515 l 267 515 l 267 911 l 122 911 l 122 839 l 61 839 l 72 972 l 597 972 l 597 911 l 530 911 l 530 753 l 822 753 l 822 515 l 1197 515 l 1197 633 l 1257 633 l 1257 456 l 1253 456 q 1271 423 1264 441 q 1278 382 1278 405 q 1260 314 1278 342 q 1207 269 1242 287 q 1310 136 1310 237 m 1194 793 l 1185 909 l 940 909 l 940 753 l 1071 753 l 1071 818 l 1131 818 l 1131 627 l 1071 627 l 1071 692 l 878 692 l 878 971 l 1253 971 l 1253 793 l 1194 793 z "},"˚":{"ha":393,"x_min":221,"x_max":524,"o":"m 465 827 q 466 864 469 846 q 452 895 462 882 q 427 916 442 908 q 393 924 412 924 q 356 916 374 924 q 321 895 337 908 q 295 864 306 882 q 279 827 283 846 q 278 788 275 806 q 292 757 281 770 q 317 736 302 744 q 351 729 332 729 q 389 736 370 729 q 423 757 408 744 q 449 788 438 770 q 465 827 460 806 m 510 827 q 447 724 496 764 q 340 681 400 681 q 252 724 283 681 q 233 827 221 764 q 256 883 239 857 q 296 929 272 908 q 347 961 319 950 q 403 972 374 972 q 454 961 432 972 q 492 929 476 950 q 510 827 524 886 z "},"−":{"ha":578,"x_min":138,"x_max":621,"o":"m 138 376 l 158 473 l 621 473 l 600 376 l 138 376 z "}," ":{"ha":519,"x_min":0,"x_max":0,"o":""}}}
